%TF.GenerationSoftware,KiCad,Pcbnew,10.0.1*%
%TF.CreationDate,2026-05-27T09:56:20-03:00*%
%TF.ProjectId,metereolog,6d657465-7265-46f6-9c6f-672e6b696361,UFSC - Alisson Claudino*%
%TF.SameCoordinates,Original*%
%TF.FileFunction,AssemblyDrawing,Top*%
%FSLAX46Y46*%
G04 Gerber Fmt 4.6, Leading zero omitted, Abs format (unit mm)*
G04 Created by KiCad (PCBNEW 10.0.1) date 2026-05-27 09:56:20*
%MOMM*%
%LPD*%
G01*
G04 APERTURE LIST*
%ADD10C,0.150000*%
%ADD11C,0.100000*%
%ADD12C,0.127000*%
%ADD13C,0.200000*%
G04 APERTURE END LIST*
D10*
X133761905Y-19034819D02*
X133761905Y-18034819D01*
X133761905Y-18034819D02*
X134000000Y-18034819D01*
X134000000Y-18034819D02*
X134142857Y-18082438D01*
X134142857Y-18082438D02*
X134238095Y-18177676D01*
X134238095Y-18177676D02*
X134285714Y-18272914D01*
X134285714Y-18272914D02*
X134333333Y-18463390D01*
X134333333Y-18463390D02*
X134333333Y-18606247D01*
X134333333Y-18606247D02*
X134285714Y-18796723D01*
X134285714Y-18796723D02*
X134238095Y-18891961D01*
X134238095Y-18891961D02*
X134142857Y-18987200D01*
X134142857Y-18987200D02*
X134000000Y-19034819D01*
X134000000Y-19034819D02*
X133761905Y-19034819D01*
X134761905Y-19034819D02*
X134761905Y-18034819D01*
X134761905Y-18511009D02*
X135333333Y-18511009D01*
X135333333Y-19034819D02*
X135333333Y-18034819D01*
X135666667Y-18034819D02*
X136238095Y-18034819D01*
X135952381Y-19034819D02*
X135952381Y-18034819D01*
X136571429Y-18653866D02*
X137333334Y-18653866D01*
X138333333Y-19034819D02*
X137761905Y-19034819D01*
X138047619Y-19034819D02*
X138047619Y-18034819D01*
X138047619Y-18034819D02*
X137952381Y-18177676D01*
X137952381Y-18177676D02*
X137857143Y-18272914D01*
X137857143Y-18272914D02*
X137761905Y-18320533D01*
X139285714Y-19034819D02*
X138714286Y-19034819D01*
X139000000Y-19034819D02*
X139000000Y-18034819D01*
X139000000Y-18034819D02*
X138904762Y-18177676D01*
X138904762Y-18177676D02*
X138809524Y-18272914D01*
X138809524Y-18272914D02*
X138714286Y-18320533D01*
X136166666Y-20304819D02*
X136166666Y-21019104D01*
X136166666Y-21019104D02*
X136119047Y-21161961D01*
X136119047Y-21161961D02*
X136023809Y-21257200D01*
X136023809Y-21257200D02*
X135880952Y-21304819D01*
X135880952Y-21304819D02*
X135785714Y-21304819D01*
X136595238Y-20400057D02*
X136642857Y-20352438D01*
X136642857Y-20352438D02*
X136738095Y-20304819D01*
X136738095Y-20304819D02*
X136976190Y-20304819D01*
X136976190Y-20304819D02*
X137071428Y-20352438D01*
X137071428Y-20352438D02*
X137119047Y-20400057D01*
X137119047Y-20400057D02*
X137166666Y-20495295D01*
X137166666Y-20495295D02*
X137166666Y-20590533D01*
X137166666Y-20590533D02*
X137119047Y-20733390D01*
X137119047Y-20733390D02*
X136547619Y-21304819D01*
X136547619Y-21304819D02*
X137166666Y-21304819D01*
X57204819Y-34095238D02*
X57204819Y-34666666D01*
X57204819Y-34380952D02*
X56204819Y-34380952D01*
X56204819Y-34380952D02*
X56347676Y-34476190D01*
X56347676Y-34476190D02*
X56442914Y-34571428D01*
X56442914Y-34571428D02*
X56490533Y-34666666D01*
X56204819Y-33238095D02*
X56204819Y-33428571D01*
X56204819Y-33428571D02*
X56252438Y-33523809D01*
X56252438Y-33523809D02*
X56300057Y-33571428D01*
X56300057Y-33571428D02*
X56442914Y-33666666D01*
X56442914Y-33666666D02*
X56633390Y-33714285D01*
X56633390Y-33714285D02*
X57014342Y-33714285D01*
X57014342Y-33714285D02*
X57109580Y-33666666D01*
X57109580Y-33666666D02*
X57157200Y-33619047D01*
X57157200Y-33619047D02*
X57204819Y-33523809D01*
X57204819Y-33523809D02*
X57204819Y-33333333D01*
X57204819Y-33333333D02*
X57157200Y-33238095D01*
X57157200Y-33238095D02*
X57109580Y-33190476D01*
X57109580Y-33190476D02*
X57014342Y-33142857D01*
X57014342Y-33142857D02*
X56776247Y-33142857D01*
X56776247Y-33142857D02*
X56681009Y-33190476D01*
X56681009Y-33190476D02*
X56633390Y-33238095D01*
X56633390Y-33238095D02*
X56585771Y-33333333D01*
X56585771Y-33333333D02*
X56585771Y-33523809D01*
X56585771Y-33523809D02*
X56633390Y-33619047D01*
X56633390Y-33619047D02*
X56681009Y-33666666D01*
X56681009Y-33666666D02*
X56776247Y-33714285D01*
X57204819Y-32714285D02*
X56204819Y-32714285D01*
X56823866Y-32619047D02*
X57204819Y-32333333D01*
X56538152Y-32333333D02*
X56919104Y-32714285D01*
X59704819Y-33666666D02*
X59228628Y-33999999D01*
X59704819Y-34238094D02*
X58704819Y-34238094D01*
X58704819Y-34238094D02*
X58704819Y-33857142D01*
X58704819Y-33857142D02*
X58752438Y-33761904D01*
X58752438Y-33761904D02*
X58800057Y-33714285D01*
X58800057Y-33714285D02*
X58895295Y-33666666D01*
X58895295Y-33666666D02*
X59038152Y-33666666D01*
X59038152Y-33666666D02*
X59133390Y-33714285D01*
X59133390Y-33714285D02*
X59181009Y-33761904D01*
X59181009Y-33761904D02*
X59228628Y-33857142D01*
X59228628Y-33857142D02*
X59228628Y-34238094D01*
X59704819Y-32714285D02*
X59704819Y-33285713D01*
X59704819Y-32999999D02*
X58704819Y-32999999D01*
X58704819Y-32999999D02*
X58847676Y-33095237D01*
X58847676Y-33095237D02*
X58942914Y-33190475D01*
X58942914Y-33190475D02*
X58990533Y-33285713D01*
X161592319Y-91271190D02*
X161068509Y-91271190D01*
X161068509Y-91271190D02*
X160973271Y-91318809D01*
X160973271Y-91318809D02*
X160925652Y-91414047D01*
X160925652Y-91414047D02*
X160925652Y-91604523D01*
X160925652Y-91604523D02*
X160973271Y-91699761D01*
X161544700Y-91271190D02*
X161592319Y-91366428D01*
X161592319Y-91366428D02*
X161592319Y-91604523D01*
X161592319Y-91604523D02*
X161544700Y-91699761D01*
X161544700Y-91699761D02*
X161449461Y-91747380D01*
X161449461Y-91747380D02*
X161354223Y-91747380D01*
X161354223Y-91747380D02*
X161258985Y-91699761D01*
X161258985Y-91699761D02*
X161211366Y-91604523D01*
X161211366Y-91604523D02*
X161211366Y-91366428D01*
X161211366Y-91366428D02*
X161163747Y-91271190D01*
X161592319Y-90794999D02*
X160925652Y-90794999D01*
X161020890Y-90794999D02*
X160973271Y-90747380D01*
X160973271Y-90747380D02*
X160925652Y-90652142D01*
X160925652Y-90652142D02*
X160925652Y-90509285D01*
X160925652Y-90509285D02*
X160973271Y-90414047D01*
X160973271Y-90414047D02*
X161068509Y-90366428D01*
X161068509Y-90366428D02*
X161592319Y-90366428D01*
X161068509Y-90366428D02*
X160973271Y-90318809D01*
X160973271Y-90318809D02*
X160925652Y-90223571D01*
X160925652Y-90223571D02*
X160925652Y-90080714D01*
X160925652Y-90080714D02*
X160973271Y-89985475D01*
X160973271Y-89985475D02*
X161068509Y-89937856D01*
X161068509Y-89937856D02*
X161592319Y-89937856D01*
X160925652Y-89461666D02*
X161925652Y-89461666D01*
X160973271Y-89461666D02*
X160925652Y-89366428D01*
X160925652Y-89366428D02*
X160925652Y-89175952D01*
X160925652Y-89175952D02*
X160973271Y-89080714D01*
X160973271Y-89080714D02*
X161020890Y-89033095D01*
X161020890Y-89033095D02*
X161116128Y-88985476D01*
X161116128Y-88985476D02*
X161401842Y-88985476D01*
X161401842Y-88985476D02*
X161497080Y-89033095D01*
X161497080Y-89033095D02*
X161544700Y-89080714D01*
X161544700Y-89080714D02*
X161592319Y-89175952D01*
X161592319Y-89175952D02*
X161592319Y-89366428D01*
X161592319Y-89366428D02*
X161544700Y-89461666D01*
X161687557Y-88795000D02*
X161687557Y-88033095D01*
X161592319Y-87794999D02*
X160925652Y-87794999D01*
X160592319Y-87794999D02*
X160639938Y-87842618D01*
X160639938Y-87842618D02*
X160687557Y-87794999D01*
X160687557Y-87794999D02*
X160639938Y-87747380D01*
X160639938Y-87747380D02*
X160592319Y-87794999D01*
X160592319Y-87794999D02*
X160687557Y-87794999D01*
X160925652Y-87318809D02*
X161592319Y-87318809D01*
X161020890Y-87318809D02*
X160973271Y-87271190D01*
X160973271Y-87271190D02*
X160925652Y-87175952D01*
X160925652Y-87175952D02*
X160925652Y-87033095D01*
X160925652Y-87033095D02*
X160973271Y-86937857D01*
X160973271Y-86937857D02*
X161068509Y-86890238D01*
X161068509Y-86890238D02*
X161592319Y-86890238D01*
X158322319Y-89628333D02*
X159036604Y-89628333D01*
X159036604Y-89628333D02*
X159179461Y-89675952D01*
X159179461Y-89675952D02*
X159274700Y-89771190D01*
X159274700Y-89771190D02*
X159322319Y-89914047D01*
X159322319Y-89914047D02*
X159322319Y-90009285D01*
X158750890Y-89009285D02*
X158703271Y-89104523D01*
X158703271Y-89104523D02*
X158655652Y-89152142D01*
X158655652Y-89152142D02*
X158560414Y-89199761D01*
X158560414Y-89199761D02*
X158512795Y-89199761D01*
X158512795Y-89199761D02*
X158417557Y-89152142D01*
X158417557Y-89152142D02*
X158369938Y-89104523D01*
X158369938Y-89104523D02*
X158322319Y-89009285D01*
X158322319Y-89009285D02*
X158322319Y-88818809D01*
X158322319Y-88818809D02*
X158369938Y-88723571D01*
X158369938Y-88723571D02*
X158417557Y-88675952D01*
X158417557Y-88675952D02*
X158512795Y-88628333D01*
X158512795Y-88628333D02*
X158560414Y-88628333D01*
X158560414Y-88628333D02*
X158655652Y-88675952D01*
X158655652Y-88675952D02*
X158703271Y-88723571D01*
X158703271Y-88723571D02*
X158750890Y-88818809D01*
X158750890Y-88818809D02*
X158750890Y-89009285D01*
X158750890Y-89009285D02*
X158798509Y-89104523D01*
X158798509Y-89104523D02*
X158846128Y-89152142D01*
X158846128Y-89152142D02*
X158941366Y-89199761D01*
X158941366Y-89199761D02*
X159131842Y-89199761D01*
X159131842Y-89199761D02*
X159227080Y-89152142D01*
X159227080Y-89152142D02*
X159274700Y-89104523D01*
X159274700Y-89104523D02*
X159322319Y-89009285D01*
X159322319Y-89009285D02*
X159322319Y-88818809D01*
X159322319Y-88818809D02*
X159274700Y-88723571D01*
X159274700Y-88723571D02*
X159227080Y-88675952D01*
X159227080Y-88675952D02*
X159131842Y-88628333D01*
X159131842Y-88628333D02*
X158941366Y-88628333D01*
X158941366Y-88628333D02*
X158846128Y-88675952D01*
X158846128Y-88675952D02*
X158798509Y-88723571D01*
X158798509Y-88723571D02*
X158750890Y-88818809D01*
X59219819Y-37829285D02*
X59219819Y-38400713D01*
X59219819Y-38114999D02*
X58219819Y-38114999D01*
X58219819Y-38114999D02*
X58362676Y-38210237D01*
X58362676Y-38210237D02*
X58457914Y-38305475D01*
X58457914Y-38305475D02*
X58505533Y-38400713D01*
X41499104Y-52107142D02*
X41499104Y-51630952D01*
X41784819Y-52202380D02*
X40784819Y-51869047D01*
X40784819Y-51869047D02*
X41784819Y-51535714D01*
X41118152Y-51202380D02*
X41784819Y-51202380D01*
X41213390Y-51202380D02*
X41165771Y-51154761D01*
X41165771Y-51154761D02*
X41118152Y-51059523D01*
X41118152Y-51059523D02*
X41118152Y-50916666D01*
X41118152Y-50916666D02*
X41165771Y-50821428D01*
X41165771Y-50821428D02*
X41261009Y-50773809D01*
X41261009Y-50773809D02*
X41784819Y-50773809D01*
X41737200Y-49916666D02*
X41784819Y-50011904D01*
X41784819Y-50011904D02*
X41784819Y-50202380D01*
X41784819Y-50202380D02*
X41737200Y-50297618D01*
X41737200Y-50297618D02*
X41641961Y-50345237D01*
X41641961Y-50345237D02*
X41261009Y-50345237D01*
X41261009Y-50345237D02*
X41165771Y-50297618D01*
X41165771Y-50297618D02*
X41118152Y-50202380D01*
X41118152Y-50202380D02*
X41118152Y-50011904D01*
X41118152Y-50011904D02*
X41165771Y-49916666D01*
X41165771Y-49916666D02*
X41261009Y-49869047D01*
X41261009Y-49869047D02*
X41356247Y-49869047D01*
X41356247Y-49869047D02*
X41451485Y-50345237D01*
X41784819Y-49440475D02*
X41118152Y-49440475D01*
X41213390Y-49440475D02*
X41165771Y-49392856D01*
X41165771Y-49392856D02*
X41118152Y-49297618D01*
X41118152Y-49297618D02*
X41118152Y-49154761D01*
X41118152Y-49154761D02*
X41165771Y-49059523D01*
X41165771Y-49059523D02*
X41261009Y-49011904D01*
X41261009Y-49011904D02*
X41784819Y-49011904D01*
X41261009Y-49011904D02*
X41165771Y-48964285D01*
X41165771Y-48964285D02*
X41118152Y-48869047D01*
X41118152Y-48869047D02*
X41118152Y-48726190D01*
X41118152Y-48726190D02*
X41165771Y-48630951D01*
X41165771Y-48630951D02*
X41261009Y-48583332D01*
X41261009Y-48583332D02*
X41784819Y-48583332D01*
X41784819Y-47964285D02*
X41737200Y-48059523D01*
X41737200Y-48059523D02*
X41689580Y-48107142D01*
X41689580Y-48107142D02*
X41594342Y-48154761D01*
X41594342Y-48154761D02*
X41308628Y-48154761D01*
X41308628Y-48154761D02*
X41213390Y-48107142D01*
X41213390Y-48107142D02*
X41165771Y-48059523D01*
X41165771Y-48059523D02*
X41118152Y-47964285D01*
X41118152Y-47964285D02*
X41118152Y-47821428D01*
X41118152Y-47821428D02*
X41165771Y-47726190D01*
X41165771Y-47726190D02*
X41213390Y-47678571D01*
X41213390Y-47678571D02*
X41308628Y-47630952D01*
X41308628Y-47630952D02*
X41594342Y-47630952D01*
X41594342Y-47630952D02*
X41689580Y-47678571D01*
X41689580Y-47678571D02*
X41737200Y-47726190D01*
X41737200Y-47726190D02*
X41784819Y-47821428D01*
X41784819Y-47821428D02*
X41784819Y-47964285D01*
X41784819Y-47202380D02*
X41118152Y-47202380D01*
X41213390Y-47202380D02*
X41165771Y-47154761D01*
X41165771Y-47154761D02*
X41118152Y-47059523D01*
X41118152Y-47059523D02*
X41118152Y-46916666D01*
X41118152Y-46916666D02*
X41165771Y-46821428D01*
X41165771Y-46821428D02*
X41261009Y-46773809D01*
X41261009Y-46773809D02*
X41784819Y-46773809D01*
X41261009Y-46773809D02*
X41165771Y-46726190D01*
X41165771Y-46726190D02*
X41118152Y-46630952D01*
X41118152Y-46630952D02*
X41118152Y-46488095D01*
X41118152Y-46488095D02*
X41165771Y-46392856D01*
X41165771Y-46392856D02*
X41261009Y-46345237D01*
X41261009Y-46345237D02*
X41784819Y-46345237D01*
X41737200Y-45488095D02*
X41784819Y-45583333D01*
X41784819Y-45583333D02*
X41784819Y-45773809D01*
X41784819Y-45773809D02*
X41737200Y-45869047D01*
X41737200Y-45869047D02*
X41641961Y-45916666D01*
X41641961Y-45916666D02*
X41261009Y-45916666D01*
X41261009Y-45916666D02*
X41165771Y-45869047D01*
X41165771Y-45869047D02*
X41118152Y-45773809D01*
X41118152Y-45773809D02*
X41118152Y-45583333D01*
X41118152Y-45583333D02*
X41165771Y-45488095D01*
X41165771Y-45488095D02*
X41261009Y-45440476D01*
X41261009Y-45440476D02*
X41356247Y-45440476D01*
X41356247Y-45440476D02*
X41451485Y-45916666D01*
X41118152Y-45154761D02*
X41118152Y-44773809D01*
X40784819Y-45011904D02*
X41641961Y-45011904D01*
X41641961Y-45011904D02*
X41737200Y-44964285D01*
X41737200Y-44964285D02*
X41784819Y-44869047D01*
X41784819Y-44869047D02*
X41784819Y-44773809D01*
X41737200Y-44059523D02*
X41784819Y-44154761D01*
X41784819Y-44154761D02*
X41784819Y-44345237D01*
X41784819Y-44345237D02*
X41737200Y-44440475D01*
X41737200Y-44440475D02*
X41641961Y-44488094D01*
X41641961Y-44488094D02*
X41261009Y-44488094D01*
X41261009Y-44488094D02*
X41165771Y-44440475D01*
X41165771Y-44440475D02*
X41118152Y-44345237D01*
X41118152Y-44345237D02*
X41118152Y-44154761D01*
X41118152Y-44154761D02*
X41165771Y-44059523D01*
X41165771Y-44059523D02*
X41261009Y-44011904D01*
X41261009Y-44011904D02*
X41356247Y-44011904D01*
X41356247Y-44011904D02*
X41451485Y-44488094D01*
X41784819Y-43583332D02*
X41118152Y-43583332D01*
X41308628Y-43583332D02*
X41213390Y-43535713D01*
X41213390Y-43535713D02*
X41165771Y-43488094D01*
X41165771Y-43488094D02*
X41118152Y-43392856D01*
X41118152Y-43392856D02*
X41118152Y-43297618D01*
X43054819Y-48083333D02*
X43769104Y-48083333D01*
X43769104Y-48083333D02*
X43911961Y-48130952D01*
X43911961Y-48130952D02*
X44007200Y-48226190D01*
X44007200Y-48226190D02*
X44054819Y-48369047D01*
X44054819Y-48369047D02*
X44054819Y-48464285D01*
X43054819Y-47702380D02*
X43054819Y-47083333D01*
X43054819Y-47083333D02*
X43435771Y-47416666D01*
X43435771Y-47416666D02*
X43435771Y-47273809D01*
X43435771Y-47273809D02*
X43483390Y-47178571D01*
X43483390Y-47178571D02*
X43531009Y-47130952D01*
X43531009Y-47130952D02*
X43626247Y-47083333D01*
X43626247Y-47083333D02*
X43864342Y-47083333D01*
X43864342Y-47083333D02*
X43959580Y-47130952D01*
X43959580Y-47130952D02*
X44007200Y-47178571D01*
X44007200Y-47178571D02*
X44054819Y-47273809D01*
X44054819Y-47273809D02*
X44054819Y-47559523D01*
X44054819Y-47559523D02*
X44007200Y-47654761D01*
X44007200Y-47654761D02*
X43959580Y-47702380D01*
X41499104Y-31154761D02*
X41499104Y-30678571D01*
X41784819Y-31249999D02*
X40784819Y-30916666D01*
X40784819Y-30916666D02*
X41784819Y-30583333D01*
X41118152Y-30249999D02*
X41784819Y-30249999D01*
X41213390Y-30249999D02*
X41165771Y-30202380D01*
X41165771Y-30202380D02*
X41118152Y-30107142D01*
X41118152Y-30107142D02*
X41118152Y-29964285D01*
X41118152Y-29964285D02*
X41165771Y-29869047D01*
X41165771Y-29869047D02*
X41261009Y-29821428D01*
X41261009Y-29821428D02*
X41784819Y-29821428D01*
X41737200Y-28964285D02*
X41784819Y-29059523D01*
X41784819Y-29059523D02*
X41784819Y-29249999D01*
X41784819Y-29249999D02*
X41737200Y-29345237D01*
X41737200Y-29345237D02*
X41641961Y-29392856D01*
X41641961Y-29392856D02*
X41261009Y-29392856D01*
X41261009Y-29392856D02*
X41165771Y-29345237D01*
X41165771Y-29345237D02*
X41118152Y-29249999D01*
X41118152Y-29249999D02*
X41118152Y-29059523D01*
X41118152Y-29059523D02*
X41165771Y-28964285D01*
X41165771Y-28964285D02*
X41261009Y-28916666D01*
X41261009Y-28916666D02*
X41356247Y-28916666D01*
X41356247Y-28916666D02*
X41451485Y-29392856D01*
X41784819Y-28488094D02*
X41118152Y-28488094D01*
X41213390Y-28488094D02*
X41165771Y-28440475D01*
X41165771Y-28440475D02*
X41118152Y-28345237D01*
X41118152Y-28345237D02*
X41118152Y-28202380D01*
X41118152Y-28202380D02*
X41165771Y-28107142D01*
X41165771Y-28107142D02*
X41261009Y-28059523D01*
X41261009Y-28059523D02*
X41784819Y-28059523D01*
X41261009Y-28059523D02*
X41165771Y-28011904D01*
X41165771Y-28011904D02*
X41118152Y-27916666D01*
X41118152Y-27916666D02*
X41118152Y-27773809D01*
X41118152Y-27773809D02*
X41165771Y-27678570D01*
X41165771Y-27678570D02*
X41261009Y-27630951D01*
X41261009Y-27630951D02*
X41784819Y-27630951D01*
X41784819Y-27011904D02*
X41737200Y-27107142D01*
X41737200Y-27107142D02*
X41689580Y-27154761D01*
X41689580Y-27154761D02*
X41594342Y-27202380D01*
X41594342Y-27202380D02*
X41308628Y-27202380D01*
X41308628Y-27202380D02*
X41213390Y-27154761D01*
X41213390Y-27154761D02*
X41165771Y-27107142D01*
X41165771Y-27107142D02*
X41118152Y-27011904D01*
X41118152Y-27011904D02*
X41118152Y-26869047D01*
X41118152Y-26869047D02*
X41165771Y-26773809D01*
X41165771Y-26773809D02*
X41213390Y-26726190D01*
X41213390Y-26726190D02*
X41308628Y-26678571D01*
X41308628Y-26678571D02*
X41594342Y-26678571D01*
X41594342Y-26678571D02*
X41689580Y-26726190D01*
X41689580Y-26726190D02*
X41737200Y-26773809D01*
X41737200Y-26773809D02*
X41784819Y-26869047D01*
X41784819Y-26869047D02*
X41784819Y-27011904D01*
X41737200Y-26297618D02*
X41784819Y-26202380D01*
X41784819Y-26202380D02*
X41784819Y-26011904D01*
X41784819Y-26011904D02*
X41737200Y-25916666D01*
X41737200Y-25916666D02*
X41641961Y-25869047D01*
X41641961Y-25869047D02*
X41594342Y-25869047D01*
X41594342Y-25869047D02*
X41499104Y-25916666D01*
X41499104Y-25916666D02*
X41451485Y-26011904D01*
X41451485Y-26011904D02*
X41451485Y-26154761D01*
X41451485Y-26154761D02*
X41403866Y-26249999D01*
X41403866Y-26249999D02*
X41308628Y-26297618D01*
X41308628Y-26297618D02*
X41261009Y-26297618D01*
X41261009Y-26297618D02*
X41165771Y-26249999D01*
X41165771Y-26249999D02*
X41118152Y-26154761D01*
X41118152Y-26154761D02*
X41118152Y-26011904D01*
X41118152Y-26011904D02*
X41165771Y-25916666D01*
X41737200Y-25011904D02*
X41784819Y-25107142D01*
X41784819Y-25107142D02*
X41784819Y-25297618D01*
X41784819Y-25297618D02*
X41737200Y-25392856D01*
X41737200Y-25392856D02*
X41689580Y-25440475D01*
X41689580Y-25440475D02*
X41594342Y-25488094D01*
X41594342Y-25488094D02*
X41308628Y-25488094D01*
X41308628Y-25488094D02*
X41213390Y-25440475D01*
X41213390Y-25440475D02*
X41165771Y-25392856D01*
X41165771Y-25392856D02*
X41118152Y-25297618D01*
X41118152Y-25297618D02*
X41118152Y-25107142D01*
X41118152Y-25107142D02*
X41165771Y-25011904D01*
X41784819Y-24440475D02*
X41737200Y-24535713D01*
X41737200Y-24535713D02*
X41689580Y-24583332D01*
X41689580Y-24583332D02*
X41594342Y-24630951D01*
X41594342Y-24630951D02*
X41308628Y-24630951D01*
X41308628Y-24630951D02*
X41213390Y-24583332D01*
X41213390Y-24583332D02*
X41165771Y-24535713D01*
X41165771Y-24535713D02*
X41118152Y-24440475D01*
X41118152Y-24440475D02*
X41118152Y-24297618D01*
X41118152Y-24297618D02*
X41165771Y-24202380D01*
X41165771Y-24202380D02*
X41213390Y-24154761D01*
X41213390Y-24154761D02*
X41308628Y-24107142D01*
X41308628Y-24107142D02*
X41594342Y-24107142D01*
X41594342Y-24107142D02*
X41689580Y-24154761D01*
X41689580Y-24154761D02*
X41737200Y-24202380D01*
X41737200Y-24202380D02*
X41784819Y-24297618D01*
X41784819Y-24297618D02*
X41784819Y-24440475D01*
X41118152Y-23678570D02*
X42118152Y-23678570D01*
X41165771Y-23678570D02*
X41118152Y-23583332D01*
X41118152Y-23583332D02*
X41118152Y-23392856D01*
X41118152Y-23392856D02*
X41165771Y-23297618D01*
X41165771Y-23297618D02*
X41213390Y-23249999D01*
X41213390Y-23249999D02*
X41308628Y-23202380D01*
X41308628Y-23202380D02*
X41594342Y-23202380D01*
X41594342Y-23202380D02*
X41689580Y-23249999D01*
X41689580Y-23249999D02*
X41737200Y-23297618D01*
X41737200Y-23297618D02*
X41784819Y-23392856D01*
X41784819Y-23392856D02*
X41784819Y-23583332D01*
X41784819Y-23583332D02*
X41737200Y-23678570D01*
X41737200Y-22392856D02*
X41784819Y-22488094D01*
X41784819Y-22488094D02*
X41784819Y-22678570D01*
X41784819Y-22678570D02*
X41737200Y-22773808D01*
X41737200Y-22773808D02*
X41641961Y-22821427D01*
X41641961Y-22821427D02*
X41261009Y-22821427D01*
X41261009Y-22821427D02*
X41165771Y-22773808D01*
X41165771Y-22773808D02*
X41118152Y-22678570D01*
X41118152Y-22678570D02*
X41118152Y-22488094D01*
X41118152Y-22488094D02*
X41165771Y-22392856D01*
X41165771Y-22392856D02*
X41261009Y-22345237D01*
X41261009Y-22345237D02*
X41356247Y-22345237D01*
X41356247Y-22345237D02*
X41451485Y-22821427D01*
X43054819Y-27083333D02*
X43769104Y-27083333D01*
X43769104Y-27083333D02*
X43911961Y-27130952D01*
X43911961Y-27130952D02*
X44007200Y-27226190D01*
X44007200Y-27226190D02*
X44054819Y-27369047D01*
X44054819Y-27369047D02*
X44054819Y-27464285D01*
X44054819Y-26083333D02*
X44054819Y-26654761D01*
X44054819Y-26369047D02*
X43054819Y-26369047D01*
X43054819Y-26369047D02*
X43197676Y-26464285D01*
X43197676Y-26464285D02*
X43292914Y-26559523D01*
X43292914Y-26559523D02*
X43340533Y-26654761D01*
X86488095Y-82073866D02*
X86535714Y-82026247D01*
X86535714Y-82026247D02*
X86630952Y-81978628D01*
X86630952Y-81978628D02*
X86821428Y-82073866D01*
X86821428Y-82073866D02*
X86916666Y-82026247D01*
X86916666Y-82026247D02*
X86964285Y-81978628D01*
X81797618Y-83954819D02*
X81702380Y-83907200D01*
X81702380Y-83907200D02*
X81654761Y-83811961D01*
X81654761Y-83811961D02*
X81654761Y-82954819D01*
X82178571Y-83954819D02*
X82178571Y-83288152D01*
X82178571Y-83383390D02*
X82226190Y-83335771D01*
X82226190Y-83335771D02*
X82321428Y-83288152D01*
X82321428Y-83288152D02*
X82464285Y-83288152D01*
X82464285Y-83288152D02*
X82559523Y-83335771D01*
X82559523Y-83335771D02*
X82607142Y-83431009D01*
X82607142Y-83431009D02*
X82607142Y-83954819D01*
X82607142Y-83431009D02*
X82654761Y-83335771D01*
X82654761Y-83335771D02*
X82749999Y-83288152D01*
X82749999Y-83288152D02*
X82892856Y-83288152D01*
X82892856Y-83288152D02*
X82988095Y-83335771D01*
X82988095Y-83335771D02*
X83035714Y-83431009D01*
X83035714Y-83431009D02*
X83035714Y-83954819D01*
X83464285Y-83050057D02*
X83511904Y-83002438D01*
X83511904Y-83002438D02*
X83607142Y-82954819D01*
X83607142Y-82954819D02*
X83845237Y-82954819D01*
X83845237Y-82954819D02*
X83940475Y-83002438D01*
X83940475Y-83002438D02*
X83988094Y-83050057D01*
X83988094Y-83050057D02*
X84035713Y-83145295D01*
X84035713Y-83145295D02*
X84035713Y-83240533D01*
X84035713Y-83240533D02*
X83988094Y-83383390D01*
X83988094Y-83383390D02*
X83416666Y-83954819D01*
X83416666Y-83954819D02*
X84035713Y-83954819D01*
X84940475Y-82954819D02*
X84464285Y-82954819D01*
X84464285Y-82954819D02*
X84416666Y-83431009D01*
X84416666Y-83431009D02*
X84464285Y-83383390D01*
X84464285Y-83383390D02*
X84559523Y-83335771D01*
X84559523Y-83335771D02*
X84797618Y-83335771D01*
X84797618Y-83335771D02*
X84892856Y-83383390D01*
X84892856Y-83383390D02*
X84940475Y-83431009D01*
X84940475Y-83431009D02*
X84988094Y-83526247D01*
X84988094Y-83526247D02*
X84988094Y-83764342D01*
X84988094Y-83764342D02*
X84940475Y-83859580D01*
X84940475Y-83859580D02*
X84892856Y-83907200D01*
X84892856Y-83907200D02*
X84797618Y-83954819D01*
X84797618Y-83954819D02*
X84559523Y-83954819D01*
X84559523Y-83954819D02*
X84464285Y-83907200D01*
X84464285Y-83907200D02*
X84416666Y-83859580D01*
X85464285Y-83954819D02*
X85654761Y-83954819D01*
X85654761Y-83954819D02*
X85749999Y-83907200D01*
X85749999Y-83907200D02*
X85797618Y-83859580D01*
X85797618Y-83859580D02*
X85892856Y-83716723D01*
X85892856Y-83716723D02*
X85940475Y-83526247D01*
X85940475Y-83526247D02*
X85940475Y-83145295D01*
X85940475Y-83145295D02*
X85892856Y-83050057D01*
X85892856Y-83050057D02*
X85845237Y-83002438D01*
X85845237Y-83002438D02*
X85749999Y-82954819D01*
X85749999Y-82954819D02*
X85559523Y-82954819D01*
X85559523Y-82954819D02*
X85464285Y-83002438D01*
X85464285Y-83002438D02*
X85416666Y-83050057D01*
X85416666Y-83050057D02*
X85369047Y-83145295D01*
X85369047Y-83145295D02*
X85369047Y-83383390D01*
X85369047Y-83383390D02*
X85416666Y-83478628D01*
X85416666Y-83478628D02*
X85464285Y-83526247D01*
X85464285Y-83526247D02*
X85559523Y-83573866D01*
X85559523Y-83573866D02*
X85749999Y-83573866D01*
X85749999Y-83573866D02*
X85845237Y-83526247D01*
X85845237Y-83526247D02*
X85892856Y-83478628D01*
X85892856Y-83478628D02*
X85940475Y-83383390D01*
X86797618Y-82954819D02*
X86607142Y-82954819D01*
X86607142Y-82954819D02*
X86511904Y-83002438D01*
X86511904Y-83002438D02*
X86464285Y-83050057D01*
X86464285Y-83050057D02*
X86369047Y-83192914D01*
X86369047Y-83192914D02*
X86321428Y-83383390D01*
X86321428Y-83383390D02*
X86321428Y-83764342D01*
X86321428Y-83764342D02*
X86369047Y-83859580D01*
X86369047Y-83859580D02*
X86416666Y-83907200D01*
X86416666Y-83907200D02*
X86511904Y-83954819D01*
X86511904Y-83954819D02*
X86702380Y-83954819D01*
X86702380Y-83954819D02*
X86797618Y-83907200D01*
X86797618Y-83907200D02*
X86845237Y-83859580D01*
X86845237Y-83859580D02*
X86892856Y-83764342D01*
X86892856Y-83764342D02*
X86892856Y-83526247D01*
X86892856Y-83526247D02*
X86845237Y-83431009D01*
X86845237Y-83431009D02*
X86797618Y-83383390D01*
X86797618Y-83383390D02*
X86702380Y-83335771D01*
X86702380Y-83335771D02*
X86511904Y-83335771D01*
X86511904Y-83335771D02*
X86416666Y-83383390D01*
X86416666Y-83383390D02*
X86369047Y-83431009D01*
X86369047Y-83431009D02*
X86321428Y-83526247D01*
X87083333Y-84050057D02*
X87845237Y-84050057D01*
X88083333Y-83954819D02*
X88083333Y-82954819D01*
X88083333Y-83335771D02*
X88178571Y-83288152D01*
X88178571Y-83288152D02*
X88369047Y-83288152D01*
X88369047Y-83288152D02*
X88464285Y-83335771D01*
X88464285Y-83335771D02*
X88511904Y-83383390D01*
X88511904Y-83383390D02*
X88559523Y-83478628D01*
X88559523Y-83478628D02*
X88559523Y-83764342D01*
X88559523Y-83764342D02*
X88511904Y-83859580D01*
X88511904Y-83859580D02*
X88464285Y-83907200D01*
X88464285Y-83907200D02*
X88369047Y-83954819D01*
X88369047Y-83954819D02*
X88178571Y-83954819D01*
X88178571Y-83954819D02*
X88083333Y-83907200D01*
X89130952Y-83954819D02*
X89035714Y-83907200D01*
X89035714Y-83907200D02*
X88988095Y-83859580D01*
X88988095Y-83859580D02*
X88940476Y-83764342D01*
X88940476Y-83764342D02*
X88940476Y-83478628D01*
X88940476Y-83478628D02*
X88988095Y-83383390D01*
X88988095Y-83383390D02*
X89035714Y-83335771D01*
X89035714Y-83335771D02*
X89130952Y-83288152D01*
X89130952Y-83288152D02*
X89273809Y-83288152D01*
X89273809Y-83288152D02*
X89369047Y-83335771D01*
X89369047Y-83335771D02*
X89416666Y-83383390D01*
X89416666Y-83383390D02*
X89464285Y-83478628D01*
X89464285Y-83478628D02*
X89464285Y-83764342D01*
X89464285Y-83764342D02*
X89416666Y-83859580D01*
X89416666Y-83859580D02*
X89369047Y-83907200D01*
X89369047Y-83907200D02*
X89273809Y-83954819D01*
X89273809Y-83954819D02*
X89130952Y-83954819D01*
X90321428Y-83954819D02*
X90321428Y-83431009D01*
X90321428Y-83431009D02*
X90273809Y-83335771D01*
X90273809Y-83335771D02*
X90178571Y-83288152D01*
X90178571Y-83288152D02*
X89988095Y-83288152D01*
X89988095Y-83288152D02*
X89892857Y-83335771D01*
X90321428Y-83907200D02*
X90226190Y-83954819D01*
X90226190Y-83954819D02*
X89988095Y-83954819D01*
X89988095Y-83954819D02*
X89892857Y-83907200D01*
X89892857Y-83907200D02*
X89845238Y-83811961D01*
X89845238Y-83811961D02*
X89845238Y-83716723D01*
X89845238Y-83716723D02*
X89892857Y-83621485D01*
X89892857Y-83621485D02*
X89988095Y-83573866D01*
X89988095Y-83573866D02*
X90226190Y-83573866D01*
X90226190Y-83573866D02*
X90321428Y-83526247D01*
X90797619Y-83954819D02*
X90797619Y-83288152D01*
X90797619Y-83478628D02*
X90845238Y-83383390D01*
X90845238Y-83383390D02*
X90892857Y-83335771D01*
X90892857Y-83335771D02*
X90988095Y-83288152D01*
X90988095Y-83288152D02*
X91083333Y-83288152D01*
X91845238Y-83954819D02*
X91845238Y-82954819D01*
X91845238Y-83907200D02*
X91750000Y-83954819D01*
X91750000Y-83954819D02*
X91559524Y-83954819D01*
X91559524Y-83954819D02*
X91464286Y-83907200D01*
X91464286Y-83907200D02*
X91416667Y-83859580D01*
X91416667Y-83859580D02*
X91369048Y-83764342D01*
X91369048Y-83764342D02*
X91369048Y-83478628D01*
X91369048Y-83478628D02*
X91416667Y-83383390D01*
X91416667Y-83383390D02*
X91464286Y-83335771D01*
X91464286Y-83335771D02*
X91559524Y-83288152D01*
X91559524Y-83288152D02*
X91750000Y-83288152D01*
X91750000Y-83288152D02*
X91845238Y-83335771D01*
X126823866Y-42801904D02*
X126776247Y-42754285D01*
X126776247Y-42754285D02*
X126728628Y-42659047D01*
X126728628Y-42659047D02*
X126823866Y-42468571D01*
X126823866Y-42468571D02*
X126776247Y-42373333D01*
X126776247Y-42373333D02*
X126728628Y-42325714D01*
X128538152Y-43682856D02*
X129204819Y-43444761D01*
X129204819Y-43444761D02*
X128538152Y-43206666D01*
X129157200Y-42397142D02*
X129204819Y-42492380D01*
X129204819Y-42492380D02*
X129204819Y-42682856D01*
X129204819Y-42682856D02*
X129157200Y-42778094D01*
X129157200Y-42778094D02*
X129109580Y-42825713D01*
X129109580Y-42825713D02*
X129014342Y-42873332D01*
X129014342Y-42873332D02*
X128728628Y-42873332D01*
X128728628Y-42873332D02*
X128633390Y-42825713D01*
X128633390Y-42825713D02*
X128585771Y-42778094D01*
X128585771Y-42778094D02*
X128538152Y-42682856D01*
X128538152Y-42682856D02*
X128538152Y-42492380D01*
X128538152Y-42492380D02*
X128585771Y-42397142D01*
X129204819Y-41444761D02*
X129204819Y-42016189D01*
X129204819Y-41730475D02*
X128204819Y-41730475D01*
X128204819Y-41730475D02*
X128347676Y-41825713D01*
X128347676Y-41825713D02*
X128442914Y-41920951D01*
X128442914Y-41920951D02*
X128490533Y-42016189D01*
X55964761Y-52454819D02*
X55393333Y-52454819D01*
X55679047Y-52454819D02*
X55679047Y-51454819D01*
X55679047Y-51454819D02*
X55583809Y-51597676D01*
X55583809Y-51597676D02*
X55488571Y-51692914D01*
X55488571Y-51692914D02*
X55393333Y-51740533D01*
X56583809Y-51454819D02*
X56679047Y-51454819D01*
X56679047Y-51454819D02*
X56774285Y-51502438D01*
X56774285Y-51502438D02*
X56821904Y-51550057D01*
X56821904Y-51550057D02*
X56869523Y-51645295D01*
X56869523Y-51645295D02*
X56917142Y-51835771D01*
X56917142Y-51835771D02*
X56917142Y-52073866D01*
X56917142Y-52073866D02*
X56869523Y-52264342D01*
X56869523Y-52264342D02*
X56821904Y-52359580D01*
X56821904Y-52359580D02*
X56774285Y-52407200D01*
X56774285Y-52407200D02*
X56679047Y-52454819D01*
X56679047Y-52454819D02*
X56583809Y-52454819D01*
X56583809Y-52454819D02*
X56488571Y-52407200D01*
X56488571Y-52407200D02*
X56440952Y-52359580D01*
X56440952Y-52359580D02*
X56393333Y-52264342D01*
X56393333Y-52264342D02*
X56345714Y-52073866D01*
X56345714Y-52073866D02*
X56345714Y-51835771D01*
X56345714Y-51835771D02*
X56393333Y-51645295D01*
X56393333Y-51645295D02*
X56440952Y-51550057D01*
X56440952Y-51550057D02*
X56488571Y-51502438D01*
X56488571Y-51502438D02*
X56583809Y-51454819D01*
X57345714Y-52454819D02*
X57345714Y-51454819D01*
X57440952Y-52073866D02*
X57726666Y-52454819D01*
X57726666Y-51788152D02*
X57345714Y-52169104D01*
X55203333Y-61954819D02*
X54870000Y-61478628D01*
X54631905Y-61954819D02*
X54631905Y-60954819D01*
X54631905Y-60954819D02*
X55012857Y-60954819D01*
X55012857Y-60954819D02*
X55108095Y-61002438D01*
X55108095Y-61002438D02*
X55155714Y-61050057D01*
X55155714Y-61050057D02*
X55203333Y-61145295D01*
X55203333Y-61145295D02*
X55203333Y-61288152D01*
X55203333Y-61288152D02*
X55155714Y-61383390D01*
X55155714Y-61383390D02*
X55108095Y-61431009D01*
X55108095Y-61431009D02*
X55012857Y-61478628D01*
X55012857Y-61478628D02*
X54631905Y-61478628D01*
X55584286Y-61050057D02*
X55631905Y-61002438D01*
X55631905Y-61002438D02*
X55727143Y-60954819D01*
X55727143Y-60954819D02*
X55965238Y-60954819D01*
X55965238Y-60954819D02*
X56060476Y-61002438D01*
X56060476Y-61002438D02*
X56108095Y-61050057D01*
X56108095Y-61050057D02*
X56155714Y-61145295D01*
X56155714Y-61145295D02*
X56155714Y-61240533D01*
X56155714Y-61240533D02*
X56108095Y-61383390D01*
X56108095Y-61383390D02*
X55536667Y-61954819D01*
X55536667Y-61954819D02*
X56155714Y-61954819D01*
X57061009Y-64547618D02*
X57108628Y-64404761D01*
X57108628Y-64404761D02*
X57156247Y-64357142D01*
X57156247Y-64357142D02*
X57251485Y-64309523D01*
X57251485Y-64309523D02*
X57394342Y-64309523D01*
X57394342Y-64309523D02*
X57489580Y-64357142D01*
X57489580Y-64357142D02*
X57537200Y-64404761D01*
X57537200Y-64404761D02*
X57584819Y-64499999D01*
X57584819Y-64499999D02*
X57584819Y-64880951D01*
X57584819Y-64880951D02*
X56584819Y-64880951D01*
X56584819Y-64880951D02*
X56584819Y-64547618D01*
X56584819Y-64547618D02*
X56632438Y-64452380D01*
X56632438Y-64452380D02*
X56680057Y-64404761D01*
X56680057Y-64404761D02*
X56775295Y-64357142D01*
X56775295Y-64357142D02*
X56870533Y-64357142D01*
X56870533Y-64357142D02*
X56965771Y-64404761D01*
X56965771Y-64404761D02*
X57013390Y-64452380D01*
X57013390Y-64452380D02*
X57061009Y-64547618D01*
X57061009Y-64547618D02*
X57061009Y-64880951D01*
X57584819Y-63880951D02*
X56584819Y-63880951D01*
X56584819Y-63880951D02*
X57299104Y-63547618D01*
X57299104Y-63547618D02*
X56584819Y-63214285D01*
X56584819Y-63214285D02*
X57584819Y-63214285D01*
X57584819Y-62738094D02*
X56584819Y-62738094D01*
X56584819Y-62738094D02*
X56584819Y-62357142D01*
X56584819Y-62357142D02*
X56632438Y-62261904D01*
X56632438Y-62261904D02*
X56680057Y-62214285D01*
X56680057Y-62214285D02*
X56775295Y-62166666D01*
X56775295Y-62166666D02*
X56918152Y-62166666D01*
X56918152Y-62166666D02*
X57013390Y-62214285D01*
X57013390Y-62214285D02*
X57061009Y-62261904D01*
X57061009Y-62261904D02*
X57108628Y-62357142D01*
X57108628Y-62357142D02*
X57108628Y-62738094D01*
X57203866Y-61738094D02*
X57203866Y-60976190D01*
X56680057Y-60547618D02*
X56632438Y-60499999D01*
X56632438Y-60499999D02*
X56584819Y-60404761D01*
X56584819Y-60404761D02*
X56584819Y-60166666D01*
X56584819Y-60166666D02*
X56632438Y-60071428D01*
X56632438Y-60071428D02*
X56680057Y-60023809D01*
X56680057Y-60023809D02*
X56775295Y-59976190D01*
X56775295Y-59976190D02*
X56870533Y-59976190D01*
X56870533Y-59976190D02*
X57013390Y-60023809D01*
X57013390Y-60023809D02*
X57584819Y-60595237D01*
X57584819Y-60595237D02*
X57584819Y-59976190D01*
X57013390Y-59404761D02*
X56965771Y-59499999D01*
X56965771Y-59499999D02*
X56918152Y-59547618D01*
X56918152Y-59547618D02*
X56822914Y-59595237D01*
X56822914Y-59595237D02*
X56775295Y-59595237D01*
X56775295Y-59595237D02*
X56680057Y-59547618D01*
X56680057Y-59547618D02*
X56632438Y-59499999D01*
X56632438Y-59499999D02*
X56584819Y-59404761D01*
X56584819Y-59404761D02*
X56584819Y-59214285D01*
X56584819Y-59214285D02*
X56632438Y-59119047D01*
X56632438Y-59119047D02*
X56680057Y-59071428D01*
X56680057Y-59071428D02*
X56775295Y-59023809D01*
X56775295Y-59023809D02*
X56822914Y-59023809D01*
X56822914Y-59023809D02*
X56918152Y-59071428D01*
X56918152Y-59071428D02*
X56965771Y-59119047D01*
X56965771Y-59119047D02*
X57013390Y-59214285D01*
X57013390Y-59214285D02*
X57013390Y-59404761D01*
X57013390Y-59404761D02*
X57061009Y-59499999D01*
X57061009Y-59499999D02*
X57108628Y-59547618D01*
X57108628Y-59547618D02*
X57203866Y-59595237D01*
X57203866Y-59595237D02*
X57394342Y-59595237D01*
X57394342Y-59595237D02*
X57489580Y-59547618D01*
X57489580Y-59547618D02*
X57537200Y-59499999D01*
X57537200Y-59499999D02*
X57584819Y-59404761D01*
X57584819Y-59404761D02*
X57584819Y-59214285D01*
X57584819Y-59214285D02*
X57537200Y-59119047D01*
X57537200Y-59119047D02*
X57489580Y-59071428D01*
X57489580Y-59071428D02*
X57394342Y-59023809D01*
X57394342Y-59023809D02*
X57203866Y-59023809D01*
X57203866Y-59023809D02*
X57108628Y-59071428D01*
X57108628Y-59071428D02*
X57061009Y-59119047D01*
X57061009Y-59119047D02*
X57013390Y-59214285D01*
X56584819Y-58404761D02*
X56584819Y-58309523D01*
X56584819Y-58309523D02*
X56632438Y-58214285D01*
X56632438Y-58214285D02*
X56680057Y-58166666D01*
X56680057Y-58166666D02*
X56775295Y-58119047D01*
X56775295Y-58119047D02*
X56965771Y-58071428D01*
X56965771Y-58071428D02*
X57203866Y-58071428D01*
X57203866Y-58071428D02*
X57394342Y-58119047D01*
X57394342Y-58119047D02*
X57489580Y-58166666D01*
X57489580Y-58166666D02*
X57537200Y-58214285D01*
X57537200Y-58214285D02*
X57584819Y-58309523D01*
X57584819Y-58309523D02*
X57584819Y-58404761D01*
X57584819Y-58404761D02*
X57537200Y-58499999D01*
X57537200Y-58499999D02*
X57489580Y-58547618D01*
X57489580Y-58547618D02*
X57394342Y-58595237D01*
X57394342Y-58595237D02*
X57203866Y-58642856D01*
X57203866Y-58642856D02*
X56965771Y-58642856D01*
X56965771Y-58642856D02*
X56775295Y-58595237D01*
X56775295Y-58595237D02*
X56680057Y-58547618D01*
X56680057Y-58547618D02*
X56632438Y-58499999D01*
X56632438Y-58499999D02*
X56584819Y-58404761D01*
X65916666Y-60954819D02*
X65916666Y-61669104D01*
X65916666Y-61669104D02*
X65869047Y-61811961D01*
X65869047Y-61811961D02*
X65773809Y-61907200D01*
X65773809Y-61907200D02*
X65630952Y-61954819D01*
X65630952Y-61954819D02*
X65535714Y-61954819D01*
X66440476Y-61954819D02*
X66630952Y-61954819D01*
X66630952Y-61954819D02*
X66726190Y-61907200D01*
X66726190Y-61907200D02*
X66773809Y-61859580D01*
X66773809Y-61859580D02*
X66869047Y-61716723D01*
X66869047Y-61716723D02*
X66916666Y-61526247D01*
X66916666Y-61526247D02*
X66916666Y-61145295D01*
X66916666Y-61145295D02*
X66869047Y-61050057D01*
X66869047Y-61050057D02*
X66821428Y-61002438D01*
X66821428Y-61002438D02*
X66726190Y-60954819D01*
X66726190Y-60954819D02*
X66535714Y-60954819D01*
X66535714Y-60954819D02*
X66440476Y-61002438D01*
X66440476Y-61002438D02*
X66392857Y-61050057D01*
X66392857Y-61050057D02*
X66345238Y-61145295D01*
X66345238Y-61145295D02*
X66345238Y-61383390D01*
X66345238Y-61383390D02*
X66392857Y-61478628D01*
X66392857Y-61478628D02*
X66440476Y-61526247D01*
X66440476Y-61526247D02*
X66535714Y-61573866D01*
X66535714Y-61573866D02*
X66726190Y-61573866D01*
X66726190Y-61573866D02*
X66821428Y-61526247D01*
X66821428Y-61526247D02*
X66869047Y-61478628D01*
X66869047Y-61478628D02*
X66916666Y-61383390D01*
X132797618Y-70144819D02*
X133130951Y-71144819D01*
X133130951Y-71144819D02*
X133464284Y-70144819D01*
X133940475Y-71144819D02*
X133845237Y-71097200D01*
X133845237Y-71097200D02*
X133797618Y-71049580D01*
X133797618Y-71049580D02*
X133749999Y-70954342D01*
X133749999Y-70954342D02*
X133749999Y-70668628D01*
X133749999Y-70668628D02*
X133797618Y-70573390D01*
X133797618Y-70573390D02*
X133845237Y-70525771D01*
X133845237Y-70525771D02*
X133940475Y-70478152D01*
X133940475Y-70478152D02*
X134083332Y-70478152D01*
X134083332Y-70478152D02*
X134178570Y-70525771D01*
X134178570Y-70525771D02*
X134226189Y-70573390D01*
X134226189Y-70573390D02*
X134273808Y-70668628D01*
X134273808Y-70668628D02*
X134273808Y-70954342D01*
X134273808Y-70954342D02*
X134226189Y-71049580D01*
X134226189Y-71049580D02*
X134178570Y-71097200D01*
X134178570Y-71097200D02*
X134083332Y-71144819D01*
X134083332Y-71144819D02*
X133940475Y-71144819D01*
X134845237Y-71144819D02*
X134749999Y-71097200D01*
X134749999Y-71097200D02*
X134702380Y-71001961D01*
X134702380Y-71001961D02*
X134702380Y-70144819D01*
X135083333Y-70478152D02*
X135464285Y-70478152D01*
X135226190Y-70144819D02*
X135226190Y-71001961D01*
X135226190Y-71001961D02*
X135273809Y-71097200D01*
X135273809Y-71097200D02*
X135369047Y-71144819D01*
X135369047Y-71144819D02*
X135464285Y-71144819D01*
X135797619Y-71144819D02*
X135797619Y-70478152D01*
X135797619Y-70573390D02*
X135845238Y-70525771D01*
X135845238Y-70525771D02*
X135940476Y-70478152D01*
X135940476Y-70478152D02*
X136083333Y-70478152D01*
X136083333Y-70478152D02*
X136178571Y-70525771D01*
X136178571Y-70525771D02*
X136226190Y-70621009D01*
X136226190Y-70621009D02*
X136226190Y-71144819D01*
X136226190Y-70621009D02*
X136273809Y-70525771D01*
X136273809Y-70525771D02*
X136369047Y-70478152D01*
X136369047Y-70478152D02*
X136511904Y-70478152D01*
X136511904Y-70478152D02*
X136607143Y-70525771D01*
X136607143Y-70525771D02*
X136654762Y-70621009D01*
X136654762Y-70621009D02*
X136654762Y-71144819D01*
X137511904Y-71097200D02*
X137416666Y-71144819D01*
X137416666Y-71144819D02*
X137226190Y-71144819D01*
X137226190Y-71144819D02*
X137130952Y-71097200D01*
X137130952Y-71097200D02*
X137083333Y-71001961D01*
X137083333Y-71001961D02*
X137083333Y-70621009D01*
X137083333Y-70621009D02*
X137130952Y-70525771D01*
X137130952Y-70525771D02*
X137226190Y-70478152D01*
X137226190Y-70478152D02*
X137416666Y-70478152D01*
X137416666Y-70478152D02*
X137511904Y-70525771D01*
X137511904Y-70525771D02*
X137559523Y-70621009D01*
X137559523Y-70621009D02*
X137559523Y-70716247D01*
X137559523Y-70716247D02*
X137083333Y-70811485D01*
X137845238Y-70478152D02*
X138226190Y-70478152D01*
X137988095Y-70144819D02*
X137988095Y-71001961D01*
X137988095Y-71001961D02*
X138035714Y-71097200D01*
X138035714Y-71097200D02*
X138130952Y-71144819D01*
X138130952Y-71144819D02*
X138226190Y-71144819D01*
X138940476Y-71097200D02*
X138845238Y-71144819D01*
X138845238Y-71144819D02*
X138654762Y-71144819D01*
X138654762Y-71144819D02*
X138559524Y-71097200D01*
X138559524Y-71097200D02*
X138511905Y-71001961D01*
X138511905Y-71001961D02*
X138511905Y-70621009D01*
X138511905Y-70621009D02*
X138559524Y-70525771D01*
X138559524Y-70525771D02*
X138654762Y-70478152D01*
X138654762Y-70478152D02*
X138845238Y-70478152D01*
X138845238Y-70478152D02*
X138940476Y-70525771D01*
X138940476Y-70525771D02*
X138988095Y-70621009D01*
X138988095Y-70621009D02*
X138988095Y-70716247D01*
X138988095Y-70716247D02*
X138511905Y-70811485D01*
X139416667Y-71144819D02*
X139416667Y-70478152D01*
X139416667Y-70668628D02*
X139464286Y-70573390D01*
X139464286Y-70573390D02*
X139511905Y-70525771D01*
X139511905Y-70525771D02*
X139607143Y-70478152D01*
X139607143Y-70478152D02*
X139702381Y-70478152D01*
X135704819Y-76333333D02*
X136419104Y-76333333D01*
X136419104Y-76333333D02*
X136561961Y-76380952D01*
X136561961Y-76380952D02*
X136657200Y-76476190D01*
X136657200Y-76476190D02*
X136704819Y-76619047D01*
X136704819Y-76619047D02*
X136704819Y-76714285D01*
X136038152Y-75428571D02*
X136704819Y-75428571D01*
X135657200Y-75666666D02*
X136371485Y-75904761D01*
X136371485Y-75904761D02*
X136371485Y-75285714D01*
X160925652Y-78809523D02*
X161592319Y-78571428D01*
X161592319Y-78571428D02*
X160925652Y-78333333D01*
X161592319Y-77809523D02*
X161544700Y-77904761D01*
X161544700Y-77904761D02*
X161497080Y-77952380D01*
X161497080Y-77952380D02*
X161401842Y-77999999D01*
X161401842Y-77999999D02*
X161116128Y-77999999D01*
X161116128Y-77999999D02*
X161020890Y-77952380D01*
X161020890Y-77952380D02*
X160973271Y-77904761D01*
X160973271Y-77904761D02*
X160925652Y-77809523D01*
X160925652Y-77809523D02*
X160925652Y-77666666D01*
X160925652Y-77666666D02*
X160973271Y-77571428D01*
X160973271Y-77571428D02*
X161020890Y-77523809D01*
X161020890Y-77523809D02*
X161116128Y-77476190D01*
X161116128Y-77476190D02*
X161401842Y-77476190D01*
X161401842Y-77476190D02*
X161497080Y-77523809D01*
X161497080Y-77523809D02*
X161544700Y-77571428D01*
X161544700Y-77571428D02*
X161592319Y-77666666D01*
X161592319Y-77666666D02*
X161592319Y-77809523D01*
X161592319Y-76904761D02*
X161544700Y-76999999D01*
X161544700Y-76999999D02*
X161449461Y-77047618D01*
X161449461Y-77047618D02*
X160592319Y-77047618D01*
X160925652Y-76666665D02*
X160925652Y-76285713D01*
X160592319Y-76523808D02*
X161449461Y-76523808D01*
X161449461Y-76523808D02*
X161544700Y-76476189D01*
X161544700Y-76476189D02*
X161592319Y-76380951D01*
X161592319Y-76380951D02*
X161592319Y-76285713D01*
X161687557Y-76190475D02*
X161687557Y-75428570D01*
X161592319Y-75190474D02*
X160925652Y-75190474D01*
X160592319Y-75190474D02*
X160639938Y-75238093D01*
X160639938Y-75238093D02*
X160687557Y-75190474D01*
X160687557Y-75190474D02*
X160639938Y-75142855D01*
X160639938Y-75142855D02*
X160592319Y-75190474D01*
X160592319Y-75190474D02*
X160687557Y-75190474D01*
X160925652Y-74714284D02*
X161592319Y-74714284D01*
X161020890Y-74714284D02*
X160973271Y-74666665D01*
X160973271Y-74666665D02*
X160925652Y-74571427D01*
X160925652Y-74571427D02*
X160925652Y-74428570D01*
X160925652Y-74428570D02*
X160973271Y-74333332D01*
X160973271Y-74333332D02*
X161068509Y-74285713D01*
X161068509Y-74285713D02*
X161592319Y-74285713D01*
X158322319Y-76833333D02*
X159036604Y-76833333D01*
X159036604Y-76833333D02*
X159179461Y-76880952D01*
X159179461Y-76880952D02*
X159274700Y-76976190D01*
X159274700Y-76976190D02*
X159322319Y-77119047D01*
X159322319Y-77119047D02*
X159322319Y-77214285D01*
X158322319Y-76452380D02*
X158322319Y-75785714D01*
X158322319Y-75785714D02*
X159322319Y-76214285D01*
X131797619Y-83819104D02*
X132273809Y-83819104D01*
X131702381Y-84104819D02*
X132035714Y-83104819D01*
X132035714Y-83104819D02*
X132369047Y-84104819D01*
X132702381Y-84104819D02*
X132702381Y-83438152D01*
X132702381Y-83533390D02*
X132750000Y-83485771D01*
X132750000Y-83485771D02*
X132845238Y-83438152D01*
X132845238Y-83438152D02*
X132988095Y-83438152D01*
X132988095Y-83438152D02*
X133083333Y-83485771D01*
X133083333Y-83485771D02*
X133130952Y-83581009D01*
X133130952Y-83581009D02*
X133130952Y-84104819D01*
X133130952Y-83581009D02*
X133178571Y-83485771D01*
X133178571Y-83485771D02*
X133273809Y-83438152D01*
X133273809Y-83438152D02*
X133416666Y-83438152D01*
X133416666Y-83438152D02*
X133511905Y-83485771D01*
X133511905Y-83485771D02*
X133559524Y-83581009D01*
X133559524Y-83581009D02*
X133559524Y-84104819D01*
X134035714Y-83438152D02*
X134035714Y-84438152D01*
X134035714Y-83485771D02*
X134130952Y-83438152D01*
X134130952Y-83438152D02*
X134321428Y-83438152D01*
X134321428Y-83438152D02*
X134416666Y-83485771D01*
X134416666Y-83485771D02*
X134464285Y-83533390D01*
X134464285Y-83533390D02*
X134511904Y-83628628D01*
X134511904Y-83628628D02*
X134511904Y-83914342D01*
X134511904Y-83914342D02*
X134464285Y-84009580D01*
X134464285Y-84009580D02*
X134416666Y-84057200D01*
X134416666Y-84057200D02*
X134321428Y-84104819D01*
X134321428Y-84104819D02*
X134130952Y-84104819D01*
X134130952Y-84104819D02*
X134035714Y-84057200D01*
X135321428Y-84057200D02*
X135226190Y-84104819D01*
X135226190Y-84104819D02*
X135035714Y-84104819D01*
X135035714Y-84104819D02*
X134940476Y-84057200D01*
X134940476Y-84057200D02*
X134892857Y-83961961D01*
X134892857Y-83961961D02*
X134892857Y-83581009D01*
X134892857Y-83581009D02*
X134940476Y-83485771D01*
X134940476Y-83485771D02*
X135035714Y-83438152D01*
X135035714Y-83438152D02*
X135226190Y-83438152D01*
X135226190Y-83438152D02*
X135321428Y-83485771D01*
X135321428Y-83485771D02*
X135369047Y-83581009D01*
X135369047Y-83581009D02*
X135369047Y-83676247D01*
X135369047Y-83676247D02*
X134892857Y-83771485D01*
X135797619Y-84104819D02*
X135797619Y-83438152D01*
X135797619Y-83628628D02*
X135845238Y-83533390D01*
X135845238Y-83533390D02*
X135892857Y-83485771D01*
X135892857Y-83485771D02*
X135988095Y-83438152D01*
X135988095Y-83438152D02*
X136083333Y-83438152D01*
X136416667Y-84104819D02*
X136416667Y-83438152D01*
X136416667Y-83104819D02*
X136369048Y-83152438D01*
X136369048Y-83152438D02*
X136416667Y-83200057D01*
X136416667Y-83200057D02*
X136464286Y-83152438D01*
X136464286Y-83152438D02*
X136416667Y-83104819D01*
X136416667Y-83104819D02*
X136416667Y-83200057D01*
X136892857Y-84104819D02*
X136892857Y-83438152D01*
X136892857Y-83533390D02*
X136940476Y-83485771D01*
X136940476Y-83485771D02*
X137035714Y-83438152D01*
X137035714Y-83438152D02*
X137178571Y-83438152D01*
X137178571Y-83438152D02*
X137273809Y-83485771D01*
X137273809Y-83485771D02*
X137321428Y-83581009D01*
X137321428Y-83581009D02*
X137321428Y-84104819D01*
X137321428Y-83581009D02*
X137369047Y-83485771D01*
X137369047Y-83485771D02*
X137464285Y-83438152D01*
X137464285Y-83438152D02*
X137607142Y-83438152D01*
X137607142Y-83438152D02*
X137702381Y-83485771D01*
X137702381Y-83485771D02*
X137750000Y-83581009D01*
X137750000Y-83581009D02*
X137750000Y-84104819D01*
X138607142Y-84057200D02*
X138511904Y-84104819D01*
X138511904Y-84104819D02*
X138321428Y-84104819D01*
X138321428Y-84104819D02*
X138226190Y-84057200D01*
X138226190Y-84057200D02*
X138178571Y-83961961D01*
X138178571Y-83961961D02*
X138178571Y-83581009D01*
X138178571Y-83581009D02*
X138226190Y-83485771D01*
X138226190Y-83485771D02*
X138321428Y-83438152D01*
X138321428Y-83438152D02*
X138511904Y-83438152D01*
X138511904Y-83438152D02*
X138607142Y-83485771D01*
X138607142Y-83485771D02*
X138654761Y-83581009D01*
X138654761Y-83581009D02*
X138654761Y-83676247D01*
X138654761Y-83676247D02*
X138178571Y-83771485D01*
X138940476Y-83438152D02*
X139321428Y-83438152D01*
X139083333Y-83104819D02*
X139083333Y-83961961D01*
X139083333Y-83961961D02*
X139130952Y-84057200D01*
X139130952Y-84057200D02*
X139226190Y-84104819D01*
X139226190Y-84104819D02*
X139321428Y-84104819D01*
X140035714Y-84057200D02*
X139940476Y-84104819D01*
X139940476Y-84104819D02*
X139750000Y-84104819D01*
X139750000Y-84104819D02*
X139654762Y-84057200D01*
X139654762Y-84057200D02*
X139607143Y-83961961D01*
X139607143Y-83961961D02*
X139607143Y-83581009D01*
X139607143Y-83581009D02*
X139654762Y-83485771D01*
X139654762Y-83485771D02*
X139750000Y-83438152D01*
X139750000Y-83438152D02*
X139940476Y-83438152D01*
X139940476Y-83438152D02*
X140035714Y-83485771D01*
X140035714Y-83485771D02*
X140083333Y-83581009D01*
X140083333Y-83581009D02*
X140083333Y-83676247D01*
X140083333Y-83676247D02*
X139607143Y-83771485D01*
X140511905Y-84104819D02*
X140511905Y-83438152D01*
X140511905Y-83628628D02*
X140559524Y-83533390D01*
X140559524Y-83533390D02*
X140607143Y-83485771D01*
X140607143Y-83485771D02*
X140702381Y-83438152D01*
X140702381Y-83438152D02*
X140797619Y-83438152D01*
X135704819Y-89293333D02*
X136419104Y-89293333D01*
X136419104Y-89293333D02*
X136561961Y-89340952D01*
X136561961Y-89340952D02*
X136657200Y-89436190D01*
X136657200Y-89436190D02*
X136704819Y-89579047D01*
X136704819Y-89579047D02*
X136704819Y-89674285D01*
X135704819Y-88340952D02*
X135704819Y-88817142D01*
X135704819Y-88817142D02*
X136181009Y-88864761D01*
X136181009Y-88864761D02*
X136133390Y-88817142D01*
X136133390Y-88817142D02*
X136085771Y-88721904D01*
X136085771Y-88721904D02*
X136085771Y-88483809D01*
X136085771Y-88483809D02*
X136133390Y-88388571D01*
X136133390Y-88388571D02*
X136181009Y-88340952D01*
X136181009Y-88340952D02*
X136276247Y-88293333D01*
X136276247Y-88293333D02*
X136514342Y-88293333D01*
X136514342Y-88293333D02*
X136609580Y-88340952D01*
X136609580Y-88340952D02*
X136657200Y-88388571D01*
X136657200Y-88388571D02*
X136704819Y-88483809D01*
X136704819Y-88483809D02*
X136704819Y-88721904D01*
X136704819Y-88721904D02*
X136657200Y-88817142D01*
X136657200Y-88817142D02*
X136609580Y-88864761D01*
X44288095Y-73454819D02*
X44288095Y-74169104D01*
X44288095Y-74169104D02*
X44240476Y-74311961D01*
X44240476Y-74311961D02*
X44145238Y-74407200D01*
X44145238Y-74407200D02*
X44002381Y-74454819D01*
X44002381Y-74454819D02*
X43907143Y-74454819D01*
X45192857Y-74454819D02*
X45192857Y-73931009D01*
X45192857Y-73931009D02*
X45145238Y-73835771D01*
X45145238Y-73835771D02*
X45050000Y-73788152D01*
X45050000Y-73788152D02*
X44859524Y-73788152D01*
X44859524Y-73788152D02*
X44764286Y-73835771D01*
X45192857Y-74407200D02*
X45097619Y-74454819D01*
X45097619Y-74454819D02*
X44859524Y-74454819D01*
X44859524Y-74454819D02*
X44764286Y-74407200D01*
X44764286Y-74407200D02*
X44716667Y-74311961D01*
X44716667Y-74311961D02*
X44716667Y-74216723D01*
X44716667Y-74216723D02*
X44764286Y-74121485D01*
X44764286Y-74121485D02*
X44859524Y-74073866D01*
X44859524Y-74073866D02*
X45097619Y-74073866D01*
X45097619Y-74073866D02*
X45192857Y-74026247D01*
X46097619Y-74407200D02*
X46002381Y-74454819D01*
X46002381Y-74454819D02*
X45811905Y-74454819D01*
X45811905Y-74454819D02*
X45716667Y-74407200D01*
X45716667Y-74407200D02*
X45669048Y-74359580D01*
X45669048Y-74359580D02*
X45621429Y-74264342D01*
X45621429Y-74264342D02*
X45621429Y-73978628D01*
X45621429Y-73978628D02*
X45669048Y-73883390D01*
X45669048Y-73883390D02*
X45716667Y-73835771D01*
X45716667Y-73835771D02*
X45811905Y-73788152D01*
X45811905Y-73788152D02*
X46002381Y-73788152D01*
X46002381Y-73788152D02*
X46097619Y-73835771D01*
X46526191Y-74454819D02*
X46526191Y-73454819D01*
X46621429Y-74073866D02*
X46907143Y-74454819D01*
X46907143Y-73788152D02*
X46526191Y-74169104D01*
X47335715Y-74073866D02*
X48097620Y-74073866D01*
X48573810Y-74454819D02*
X48573810Y-73454819D01*
X48573810Y-73454819D02*
X48811905Y-73454819D01*
X48811905Y-73454819D02*
X48954762Y-73502438D01*
X48954762Y-73502438D02*
X49050000Y-73597676D01*
X49050000Y-73597676D02*
X49097619Y-73692914D01*
X49097619Y-73692914D02*
X49145238Y-73883390D01*
X49145238Y-73883390D02*
X49145238Y-74026247D01*
X49145238Y-74026247D02*
X49097619Y-74216723D01*
X49097619Y-74216723D02*
X49050000Y-74311961D01*
X49050000Y-74311961D02*
X48954762Y-74407200D01*
X48954762Y-74407200D02*
X48811905Y-74454819D01*
X48811905Y-74454819D02*
X48573810Y-74454819D01*
X50145238Y-74359580D02*
X50097619Y-74407200D01*
X50097619Y-74407200D02*
X49954762Y-74454819D01*
X49954762Y-74454819D02*
X49859524Y-74454819D01*
X49859524Y-74454819D02*
X49716667Y-74407200D01*
X49716667Y-74407200D02*
X49621429Y-74311961D01*
X49621429Y-74311961D02*
X49573810Y-74216723D01*
X49573810Y-74216723D02*
X49526191Y-74026247D01*
X49526191Y-74026247D02*
X49526191Y-73883390D01*
X49526191Y-73883390D02*
X49573810Y-73692914D01*
X49573810Y-73692914D02*
X49621429Y-73597676D01*
X49621429Y-73597676D02*
X49716667Y-73502438D01*
X49716667Y-73502438D02*
X49859524Y-73454819D01*
X49859524Y-73454819D02*
X49954762Y-73454819D01*
X49954762Y-73454819D02*
X50097619Y-73502438D01*
X50097619Y-73502438D02*
X50145238Y-73550057D01*
X49916666Y-76004819D02*
X49916666Y-76719104D01*
X49916666Y-76719104D02*
X49869047Y-76861961D01*
X49869047Y-76861961D02*
X49773809Y-76957200D01*
X49773809Y-76957200D02*
X49630952Y-77004819D01*
X49630952Y-77004819D02*
X49535714Y-77004819D01*
X50821428Y-76004819D02*
X50630952Y-76004819D01*
X50630952Y-76004819D02*
X50535714Y-76052438D01*
X50535714Y-76052438D02*
X50488095Y-76100057D01*
X50488095Y-76100057D02*
X50392857Y-76242914D01*
X50392857Y-76242914D02*
X50345238Y-76433390D01*
X50345238Y-76433390D02*
X50345238Y-76814342D01*
X50345238Y-76814342D02*
X50392857Y-76909580D01*
X50392857Y-76909580D02*
X50440476Y-76957200D01*
X50440476Y-76957200D02*
X50535714Y-77004819D01*
X50535714Y-77004819D02*
X50726190Y-77004819D01*
X50726190Y-77004819D02*
X50821428Y-76957200D01*
X50821428Y-76957200D02*
X50869047Y-76909580D01*
X50869047Y-76909580D02*
X50916666Y-76814342D01*
X50916666Y-76814342D02*
X50916666Y-76576247D01*
X50916666Y-76576247D02*
X50869047Y-76481009D01*
X50869047Y-76481009D02*
X50821428Y-76433390D01*
X50821428Y-76433390D02*
X50726190Y-76385771D01*
X50726190Y-76385771D02*
X50535714Y-76385771D01*
X50535714Y-76385771D02*
X50440476Y-76433390D01*
X50440476Y-76433390D02*
X50392857Y-76481009D01*
X50392857Y-76481009D02*
X50345238Y-76576247D01*
X147344761Y-30144819D02*
X146773333Y-30144819D01*
X147059047Y-30144819D02*
X147059047Y-29144819D01*
X147059047Y-29144819D02*
X146963809Y-29287676D01*
X146963809Y-29287676D02*
X146868571Y-29382914D01*
X146868571Y-29382914D02*
X146773333Y-29430533D01*
X147963809Y-29144819D02*
X148059047Y-29144819D01*
X148059047Y-29144819D02*
X148154285Y-29192438D01*
X148154285Y-29192438D02*
X148201904Y-29240057D01*
X148201904Y-29240057D02*
X148249523Y-29335295D01*
X148249523Y-29335295D02*
X148297142Y-29525771D01*
X148297142Y-29525771D02*
X148297142Y-29763866D01*
X148297142Y-29763866D02*
X148249523Y-29954342D01*
X148249523Y-29954342D02*
X148201904Y-30049580D01*
X148201904Y-30049580D02*
X148154285Y-30097200D01*
X148154285Y-30097200D02*
X148059047Y-30144819D01*
X148059047Y-30144819D02*
X147963809Y-30144819D01*
X147963809Y-30144819D02*
X147868571Y-30097200D01*
X147868571Y-30097200D02*
X147820952Y-30049580D01*
X147820952Y-30049580D02*
X147773333Y-29954342D01*
X147773333Y-29954342D02*
X147725714Y-29763866D01*
X147725714Y-29763866D02*
X147725714Y-29525771D01*
X147725714Y-29525771D02*
X147773333Y-29335295D01*
X147773333Y-29335295D02*
X147820952Y-29240057D01*
X147820952Y-29240057D02*
X147868571Y-29192438D01*
X147868571Y-29192438D02*
X147963809Y-29144819D01*
X148725714Y-30144819D02*
X148725714Y-29144819D01*
X148820952Y-29763866D02*
X149106666Y-30144819D01*
X149106666Y-29478152D02*
X148725714Y-29859104D01*
X147773333Y-32644819D02*
X147440000Y-32168628D01*
X147201905Y-32644819D02*
X147201905Y-31644819D01*
X147201905Y-31644819D02*
X147582857Y-31644819D01*
X147582857Y-31644819D02*
X147678095Y-31692438D01*
X147678095Y-31692438D02*
X147725714Y-31740057D01*
X147725714Y-31740057D02*
X147773333Y-31835295D01*
X147773333Y-31835295D02*
X147773333Y-31978152D01*
X147773333Y-31978152D02*
X147725714Y-32073390D01*
X147725714Y-32073390D02*
X147678095Y-32121009D01*
X147678095Y-32121009D02*
X147582857Y-32168628D01*
X147582857Y-32168628D02*
X147201905Y-32168628D01*
X148106667Y-31644819D02*
X148725714Y-31644819D01*
X148725714Y-31644819D02*
X148392381Y-32025771D01*
X148392381Y-32025771D02*
X148535238Y-32025771D01*
X148535238Y-32025771D02*
X148630476Y-32073390D01*
X148630476Y-32073390D02*
X148678095Y-32121009D01*
X148678095Y-32121009D02*
X148725714Y-32216247D01*
X148725714Y-32216247D02*
X148725714Y-32454342D01*
X148725714Y-32454342D02*
X148678095Y-32549580D01*
X148678095Y-32549580D02*
X148630476Y-32597200D01*
X148630476Y-32597200D02*
X148535238Y-32644819D01*
X148535238Y-32644819D02*
X148249524Y-32644819D01*
X148249524Y-32644819D02*
X148154286Y-32597200D01*
X148154286Y-32597200D02*
X148106667Y-32549580D01*
X150333333Y-19067319D02*
X150333333Y-18067319D01*
X150333333Y-18067319D02*
X150714285Y-18067319D01*
X150714285Y-18067319D02*
X150809523Y-18114938D01*
X150809523Y-18114938D02*
X150857142Y-18162557D01*
X150857142Y-18162557D02*
X150904761Y-18257795D01*
X150904761Y-18257795D02*
X150904761Y-18400652D01*
X150904761Y-18400652D02*
X150857142Y-18495890D01*
X150857142Y-18495890D02*
X150809523Y-18543509D01*
X150809523Y-18543509D02*
X150714285Y-18591128D01*
X150714285Y-18591128D02*
X150333333Y-18591128D01*
X151476190Y-19067319D02*
X151380952Y-19019700D01*
X151380952Y-19019700D02*
X151333333Y-18924461D01*
X151333333Y-18924461D02*
X151333333Y-18067319D01*
X152285714Y-18400652D02*
X152285714Y-19067319D01*
X151857143Y-18400652D02*
X151857143Y-18924461D01*
X151857143Y-18924461D02*
X151904762Y-19019700D01*
X151904762Y-19019700D02*
X152000000Y-19067319D01*
X152000000Y-19067319D02*
X152142857Y-19067319D01*
X152142857Y-19067319D02*
X152238095Y-19019700D01*
X152238095Y-19019700D02*
X152285714Y-18972080D01*
X152666667Y-18400652D02*
X152904762Y-19067319D01*
X152904762Y-19067319D02*
X153142857Y-18400652D01*
X153523810Y-19067319D02*
X153523810Y-18400652D01*
X153523810Y-18067319D02*
X153476191Y-18114938D01*
X153476191Y-18114938D02*
X153523810Y-18162557D01*
X153523810Y-18162557D02*
X153571429Y-18114938D01*
X153571429Y-18114938D02*
X153523810Y-18067319D01*
X153523810Y-18067319D02*
X153523810Y-18162557D01*
X154142857Y-19067319D02*
X154047619Y-19019700D01*
X154047619Y-19019700D02*
X154000000Y-18972080D01*
X154000000Y-18972080D02*
X153952381Y-18876842D01*
X153952381Y-18876842D02*
X153952381Y-18591128D01*
X153952381Y-18591128D02*
X154000000Y-18495890D01*
X154000000Y-18495890D02*
X154047619Y-18448271D01*
X154047619Y-18448271D02*
X154142857Y-18400652D01*
X154142857Y-18400652D02*
X154285714Y-18400652D01*
X154285714Y-18400652D02*
X154380952Y-18448271D01*
X154380952Y-18448271D02*
X154428571Y-18495890D01*
X154428571Y-18495890D02*
X154476190Y-18591128D01*
X154476190Y-18591128D02*
X154476190Y-18876842D01*
X154476190Y-18876842D02*
X154428571Y-18972080D01*
X154428571Y-18972080D02*
X154380952Y-19019700D01*
X154380952Y-19019700D02*
X154285714Y-19067319D01*
X154285714Y-19067319D02*
X154142857Y-19067319D01*
X154904762Y-19067319D02*
X154904762Y-18400652D01*
X154904762Y-18495890D02*
X154952381Y-18448271D01*
X154952381Y-18448271D02*
X155047619Y-18400652D01*
X155047619Y-18400652D02*
X155190476Y-18400652D01*
X155190476Y-18400652D02*
X155285714Y-18448271D01*
X155285714Y-18448271D02*
X155333333Y-18543509D01*
X155333333Y-18543509D02*
X155333333Y-19067319D01*
X155333333Y-18543509D02*
X155380952Y-18448271D01*
X155380952Y-18448271D02*
X155476190Y-18400652D01*
X155476190Y-18400652D02*
X155619047Y-18400652D01*
X155619047Y-18400652D02*
X155714286Y-18448271D01*
X155714286Y-18448271D02*
X155761905Y-18543509D01*
X155761905Y-18543509D02*
X155761905Y-19067319D01*
X156619047Y-19019700D02*
X156523809Y-19067319D01*
X156523809Y-19067319D02*
X156333333Y-19067319D01*
X156333333Y-19067319D02*
X156238095Y-19019700D01*
X156238095Y-19019700D02*
X156190476Y-18924461D01*
X156190476Y-18924461D02*
X156190476Y-18543509D01*
X156190476Y-18543509D02*
X156238095Y-18448271D01*
X156238095Y-18448271D02*
X156333333Y-18400652D01*
X156333333Y-18400652D02*
X156523809Y-18400652D01*
X156523809Y-18400652D02*
X156619047Y-18448271D01*
X156619047Y-18448271D02*
X156666666Y-18543509D01*
X156666666Y-18543509D02*
X156666666Y-18638747D01*
X156666666Y-18638747D02*
X156190476Y-18733985D01*
X156952381Y-18400652D02*
X157333333Y-18400652D01*
X157095238Y-18067319D02*
X157095238Y-18924461D01*
X157095238Y-18924461D02*
X157142857Y-19019700D01*
X157142857Y-19019700D02*
X157238095Y-19067319D01*
X157238095Y-19067319D02*
X157333333Y-19067319D01*
X158047619Y-19019700D02*
X157952381Y-19067319D01*
X157952381Y-19067319D02*
X157761905Y-19067319D01*
X157761905Y-19067319D02*
X157666667Y-19019700D01*
X157666667Y-19019700D02*
X157619048Y-18924461D01*
X157619048Y-18924461D02*
X157619048Y-18543509D01*
X157619048Y-18543509D02*
X157666667Y-18448271D01*
X157666667Y-18448271D02*
X157761905Y-18400652D01*
X157761905Y-18400652D02*
X157952381Y-18400652D01*
X157952381Y-18400652D02*
X158047619Y-18448271D01*
X158047619Y-18448271D02*
X158095238Y-18543509D01*
X158095238Y-18543509D02*
X158095238Y-18638747D01*
X158095238Y-18638747D02*
X157619048Y-18733985D01*
X158523810Y-19067319D02*
X158523810Y-18400652D01*
X158523810Y-18591128D02*
X158571429Y-18495890D01*
X158571429Y-18495890D02*
X158619048Y-18448271D01*
X158619048Y-18448271D02*
X158714286Y-18400652D01*
X158714286Y-18400652D02*
X158809524Y-18400652D01*
X153690476Y-20337319D02*
X153690476Y-21051604D01*
X153690476Y-21051604D02*
X153642857Y-21194461D01*
X153642857Y-21194461D02*
X153547619Y-21289700D01*
X153547619Y-21289700D02*
X153404762Y-21337319D01*
X153404762Y-21337319D02*
X153309524Y-21337319D01*
X154690476Y-21337319D02*
X154119048Y-21337319D01*
X154404762Y-21337319D02*
X154404762Y-20337319D01*
X154404762Y-20337319D02*
X154309524Y-20480176D01*
X154309524Y-20480176D02*
X154214286Y-20575414D01*
X154214286Y-20575414D02*
X154119048Y-20623033D01*
X155309524Y-20337319D02*
X155404762Y-20337319D01*
X155404762Y-20337319D02*
X155500000Y-20384938D01*
X155500000Y-20384938D02*
X155547619Y-20432557D01*
X155547619Y-20432557D02*
X155595238Y-20527795D01*
X155595238Y-20527795D02*
X155642857Y-20718271D01*
X155642857Y-20718271D02*
X155642857Y-20956366D01*
X155642857Y-20956366D02*
X155595238Y-21146842D01*
X155595238Y-21146842D02*
X155547619Y-21242080D01*
X155547619Y-21242080D02*
X155500000Y-21289700D01*
X155500000Y-21289700D02*
X155404762Y-21337319D01*
X155404762Y-21337319D02*
X155309524Y-21337319D01*
X155309524Y-21337319D02*
X155214286Y-21289700D01*
X155214286Y-21289700D02*
X155166667Y-21242080D01*
X155166667Y-21242080D02*
X155119048Y-21146842D01*
X155119048Y-21146842D02*
X155071429Y-20956366D01*
X155071429Y-20956366D02*
X155071429Y-20718271D01*
X155071429Y-20718271D02*
X155119048Y-20527795D01*
X155119048Y-20527795D02*
X155166667Y-20432557D01*
X155166667Y-20432557D02*
X155214286Y-20384938D01*
X155214286Y-20384938D02*
X155309524Y-20337319D01*
X126823866Y-58611904D02*
X126776247Y-58564285D01*
X126776247Y-58564285D02*
X126728628Y-58469047D01*
X126728628Y-58469047D02*
X126823866Y-58278571D01*
X126823866Y-58278571D02*
X126776247Y-58183333D01*
X126776247Y-58183333D02*
X126728628Y-58135714D01*
X128538152Y-59492856D02*
X129204819Y-59254761D01*
X129204819Y-59254761D02*
X128538152Y-59016666D01*
X129157200Y-58207142D02*
X129204819Y-58302380D01*
X129204819Y-58302380D02*
X129204819Y-58492856D01*
X129204819Y-58492856D02*
X129157200Y-58588094D01*
X129157200Y-58588094D02*
X129109580Y-58635713D01*
X129109580Y-58635713D02*
X129014342Y-58683332D01*
X129014342Y-58683332D02*
X128728628Y-58683332D01*
X128728628Y-58683332D02*
X128633390Y-58635713D01*
X128633390Y-58635713D02*
X128585771Y-58588094D01*
X128585771Y-58588094D02*
X128538152Y-58492856D01*
X128538152Y-58492856D02*
X128538152Y-58302380D01*
X128538152Y-58302380D02*
X128585771Y-58207142D01*
X128300057Y-57826189D02*
X128252438Y-57778570D01*
X128252438Y-57778570D02*
X128204819Y-57683332D01*
X128204819Y-57683332D02*
X128204819Y-57445237D01*
X128204819Y-57445237D02*
X128252438Y-57349999D01*
X128252438Y-57349999D02*
X128300057Y-57302380D01*
X128300057Y-57302380D02*
X128395295Y-57254761D01*
X128395295Y-57254761D02*
X128490533Y-57254761D01*
X128490533Y-57254761D02*
X128633390Y-57302380D01*
X128633390Y-57302380D02*
X129204819Y-57873808D01*
X129204819Y-57873808D02*
X129204819Y-57254761D01*
X153636133Y-49348095D02*
X153683752Y-49395714D01*
X153683752Y-49395714D02*
X153731371Y-49490952D01*
X153731371Y-49490952D02*
X153636133Y-49681428D01*
X153636133Y-49681428D02*
X153683752Y-49776666D01*
X153683752Y-49776666D02*
X153731371Y-49824285D01*
X151755180Y-47490952D02*
X152421847Y-47490952D01*
X152231371Y-47490952D02*
X152326609Y-47538571D01*
X152326609Y-47538571D02*
X152374228Y-47586190D01*
X152374228Y-47586190D02*
X152421847Y-47681428D01*
X152421847Y-47681428D02*
X152421847Y-47776666D01*
X152421847Y-47967143D02*
X152421847Y-48348095D01*
X152755180Y-48110000D02*
X151898038Y-48110000D01*
X151898038Y-48110000D02*
X151802800Y-48157619D01*
X151802800Y-48157619D02*
X151755180Y-48252857D01*
X151755180Y-48252857D02*
X151755180Y-48348095D01*
X151802800Y-49110000D02*
X151755180Y-49014762D01*
X151755180Y-49014762D02*
X151755180Y-48824286D01*
X151755180Y-48824286D02*
X151802800Y-48729048D01*
X151802800Y-48729048D02*
X151850419Y-48681429D01*
X151850419Y-48681429D02*
X151945657Y-48633810D01*
X151945657Y-48633810D02*
X152231371Y-48633810D01*
X152231371Y-48633810D02*
X152326609Y-48681429D01*
X152326609Y-48681429D02*
X152374228Y-48729048D01*
X152374228Y-48729048D02*
X152421847Y-48824286D01*
X152421847Y-48824286D02*
X152421847Y-49014762D01*
X152421847Y-49014762D02*
X152374228Y-49110000D01*
X151802800Y-49490953D02*
X151755180Y-49586191D01*
X151755180Y-49586191D02*
X151755180Y-49776667D01*
X151755180Y-49776667D02*
X151802800Y-49871905D01*
X151802800Y-49871905D02*
X151898038Y-49919524D01*
X151898038Y-49919524D02*
X151945657Y-49919524D01*
X151945657Y-49919524D02*
X152040895Y-49871905D01*
X152040895Y-49871905D02*
X152088514Y-49776667D01*
X152088514Y-49776667D02*
X152088514Y-49633810D01*
X152088514Y-49633810D02*
X152136133Y-49538572D01*
X152136133Y-49538572D02*
X152231371Y-49490953D01*
X152231371Y-49490953D02*
X152278990Y-49490953D01*
X152278990Y-49490953D02*
X152374228Y-49538572D01*
X152374228Y-49538572D02*
X152421847Y-49633810D01*
X152421847Y-49633810D02*
X152421847Y-49776667D01*
X152421847Y-49776667D02*
X152374228Y-49871905D01*
X151755180Y-50776667D02*
X152755180Y-50776667D01*
X151802800Y-50776667D02*
X151755180Y-50681429D01*
X151755180Y-50681429D02*
X151755180Y-50490953D01*
X151755180Y-50490953D02*
X151802800Y-50395715D01*
X151802800Y-50395715D02*
X151850419Y-50348096D01*
X151850419Y-50348096D02*
X151945657Y-50300477D01*
X151945657Y-50300477D02*
X152231371Y-50300477D01*
X152231371Y-50300477D02*
X152326609Y-50348096D01*
X152326609Y-50348096D02*
X152374228Y-50395715D01*
X152374228Y-50395715D02*
X152421847Y-50490953D01*
X152421847Y-50490953D02*
X152421847Y-50681429D01*
X152421847Y-50681429D02*
X152374228Y-50776667D01*
X151755180Y-51776667D02*
X151755180Y-51205239D01*
X151755180Y-51490953D02*
X152755180Y-51490953D01*
X152755180Y-51490953D02*
X152612323Y-51395715D01*
X152612323Y-51395715D02*
X152517085Y-51300477D01*
X152517085Y-51300477D02*
X152469466Y-51205239D01*
%TO.C,J2*%
D11*
X128750000Y-27500000D02*
X128750000Y-19700000D01*
X144250000Y-27500000D02*
X128750000Y-27500000D01*
X130232000Y-24713000D02*
X132463000Y-22482000D01*
X135232000Y-24713000D02*
X137463000Y-22482000D01*
X140232000Y-24713000D02*
X142463000Y-22482000D01*
X130037000Y-24518000D02*
X132268000Y-22287000D01*
X135037000Y-24518000D02*
X137268000Y-22287000D01*
X140037000Y-24518000D02*
X142268000Y-22287000D01*
X144250000Y-24000000D02*
X128750000Y-24000000D01*
X144250000Y-23000000D02*
X128750000Y-23000000D01*
X144250000Y-21700000D02*
X128750000Y-21700000D01*
X144250000Y-21650000D02*
X144250000Y-27500000D01*
X128750000Y-19700000D02*
X142300000Y-19700000D01*
X142300000Y-19700000D02*
X144250000Y-21650000D01*
X132850000Y-23500000D02*
G75*
G02*
X129650000Y-23500000I-1600000J0D01*
G01*
X129650000Y-23500000D02*
G75*
G02*
X132850000Y-23500000I1600000J0D01*
G01*
X137850000Y-23500000D02*
G75*
G02*
X134650000Y-23500000I-1600000J0D01*
G01*
X134650000Y-23500000D02*
G75*
G02*
X137850000Y-23500000I1600000J0D01*
G01*
X142850000Y-23500000D02*
G75*
G02*
X139650000Y-23500000I-1600000J0D01*
G01*
X139650000Y-23500000D02*
G75*
G02*
X142850000Y-23500000I1600000J0D01*
G01*
%TO.C,R1*%
X56750000Y-37310000D02*
X56750000Y-36650000D01*
X56750000Y-29690000D02*
X56750000Y-30350000D01*
X55500000Y-30350000D02*
X58000000Y-30350000D01*
X58000000Y-36650000D01*
X55500000Y-36650000D01*
X55500000Y-30350000D01*
%TO.C,J8*%
X152217500Y-94545000D02*
X152217500Y-84045000D01*
X155717500Y-94545000D02*
X155717500Y-84045000D01*
X156717500Y-94545000D02*
X156717500Y-84045000D01*
X158017500Y-94545000D02*
X158017500Y-84045000D01*
X158067500Y-94545000D02*
X152217500Y-94545000D01*
X160017500Y-92595000D02*
X158067500Y-94545000D01*
X155004500Y-90527000D02*
X157235500Y-92758000D01*
X155199500Y-90332000D02*
X157430500Y-92563000D01*
X155004500Y-85527000D02*
X157235500Y-87758000D01*
X155199500Y-85332000D02*
X157430500Y-87563000D01*
X152217500Y-84045000D02*
X160017500Y-84045000D01*
X160017500Y-84045000D02*
X160017500Y-92595000D01*
X157817500Y-91545000D02*
G75*
G02*
X154617500Y-91545000I-1600000J0D01*
G01*
X154617500Y-91545000D02*
G75*
G02*
X157817500Y-91545000I1600000J0D01*
G01*
X157817500Y-86545000D02*
G75*
G02*
X154617500Y-86545000I-1600000J0D01*
G01*
X154617500Y-86545000D02*
G75*
G02*
X157817500Y-86545000I1600000J0D01*
G01*
%TO.C,HTC1*%
D12*
X62950000Y-49260000D02*
X62950000Y-44260000D01*
X110850000Y-49260000D02*
X62950000Y-49260000D01*
X60650000Y-41510000D02*
X62950000Y-44260000D01*
X60650000Y-31510000D02*
X60650000Y-41510000D01*
X62950000Y-28760000D02*
X60650000Y-31510000D01*
X62950000Y-28760000D02*
X62950000Y-23760000D01*
X62950000Y-23760000D02*
X110850000Y-23760000D01*
X110850000Y-23760000D02*
X110850000Y-49260000D01*
D13*
X108250000Y-22710000D02*
G75*
G02*
X108050000Y-22710000I-100000J0D01*
G01*
X108050000Y-22710000D02*
G75*
G02*
X108250000Y-22710000I100000J0D01*
G01*
%TO.C,J3*%
D11*
X42450000Y-53000000D02*
X42450000Y-44450000D01*
X50250000Y-53000000D02*
X42450000Y-53000000D01*
X47268000Y-51713000D02*
X45037000Y-49482000D01*
X47463000Y-51518000D02*
X45232000Y-49287000D01*
X47268000Y-46713000D02*
X45037000Y-44482000D01*
X47463000Y-46518000D02*
X45232000Y-44287000D01*
X42450000Y-44450000D02*
X44400000Y-42500000D01*
X44400000Y-42500000D02*
X50250000Y-42500000D01*
X44450000Y-42500000D02*
X44450000Y-53000000D01*
X45750000Y-42500000D02*
X45750000Y-53000000D01*
X46750000Y-42500000D02*
X46750000Y-53000000D01*
X50250000Y-42500000D02*
X50250000Y-53000000D01*
X47850000Y-50500000D02*
G75*
G02*
X44650000Y-50500000I-1600000J0D01*
G01*
X44650000Y-50500000D02*
G75*
G02*
X47850000Y-50500000I1600000J0D01*
G01*
X47850000Y-45500000D02*
G75*
G02*
X44650000Y-45500000I-1600000J0D01*
G01*
X44650000Y-45500000D02*
G75*
G02*
X47850000Y-45500000I1600000J0D01*
G01*
%TO.C,J1*%
X42450000Y-32000000D02*
X42450000Y-23450000D01*
X50250000Y-32000000D02*
X42450000Y-32000000D01*
X47268000Y-30713000D02*
X45037000Y-28482000D01*
X47463000Y-30518000D02*
X45232000Y-28287000D01*
X47268000Y-25713000D02*
X45037000Y-23482000D01*
X47463000Y-25518000D02*
X45232000Y-23287000D01*
X42450000Y-23450000D02*
X44400000Y-21500000D01*
X44400000Y-21500000D02*
X50250000Y-21500000D01*
X44450000Y-21500000D02*
X44450000Y-32000000D01*
X45750000Y-21500000D02*
X45750000Y-32000000D01*
X46750000Y-21500000D02*
X46750000Y-32000000D01*
X50250000Y-21500000D02*
X50250000Y-32000000D01*
X47850000Y-29500000D02*
G75*
G02*
X44650000Y-29500000I-1600000J0D01*
G01*
X44650000Y-29500000D02*
G75*
G02*
X47850000Y-29500000I1600000J0D01*
G01*
X47850000Y-24500000D02*
G75*
G02*
X44650000Y-24500000I-1600000J0D01*
G01*
X44650000Y-24500000D02*
G75*
G02*
X47850000Y-24500000I1600000J0D01*
G01*
%TO.C,R2*%
X52750000Y-52000000D02*
X53410000Y-52000000D01*
X60370000Y-52000000D02*
X59710000Y-52000000D01*
X53410000Y-50750000D02*
X59710000Y-50750000D01*
X59710000Y-53250000D01*
X53410000Y-53250000D01*
X53410000Y-50750000D01*
%TO.C,J9*%
X58630000Y-62770000D02*
X58630000Y-60230000D01*
X73235000Y-62770000D02*
X58630000Y-62770000D01*
X73870000Y-62135000D02*
X73235000Y-62770000D01*
X58630000Y-60230000D02*
X73870000Y-60230000D01*
X73870000Y-60230000D02*
X73870000Y-62135000D01*
%TO.C,J4*%
X135615000Y-79810000D02*
X134980000Y-79175000D01*
X137520000Y-79810000D02*
X135615000Y-79810000D01*
X134980000Y-79175000D02*
X134980000Y-72190000D01*
X134980000Y-72190000D02*
X137520000Y-72190000D01*
X137520000Y-72190000D02*
X137520000Y-79810000D01*
%TO.C,J7*%
X152217500Y-81750000D02*
X152217500Y-71250000D01*
X155717500Y-81750000D02*
X155717500Y-71250000D01*
X156717500Y-81750000D02*
X156717500Y-71250000D01*
X158017500Y-81750000D02*
X158017500Y-71250000D01*
X158067500Y-81750000D02*
X152217500Y-81750000D01*
X160017500Y-79800000D02*
X158067500Y-81750000D01*
X155004500Y-77732000D02*
X157235500Y-79963000D01*
X155199500Y-77537000D02*
X157430500Y-79768000D01*
X155004500Y-72732000D02*
X157235500Y-74963000D01*
X155199500Y-72537000D02*
X157430500Y-74768000D01*
X152217500Y-71250000D02*
X160017500Y-71250000D01*
X160017500Y-71250000D02*
X160017500Y-79800000D01*
X157817500Y-78750000D02*
G75*
G02*
X154617500Y-78750000I-1600000J0D01*
G01*
X154617500Y-78750000D02*
G75*
G02*
X157817500Y-78750000I1600000J0D01*
G01*
X157817500Y-73750000D02*
G75*
G02*
X154617500Y-73750000I-1600000J0D01*
G01*
X154617500Y-73750000D02*
G75*
G02*
X157817500Y-73750000I1600000J0D01*
G01*
%TO.C,J5*%
X135615000Y-92770000D02*
X134980000Y-92135000D01*
X137520000Y-92770000D02*
X135615000Y-92770000D01*
X134980000Y-92135000D02*
X134980000Y-85150000D01*
X134980000Y-85150000D02*
X137520000Y-85150000D01*
X137520000Y-85150000D02*
X137520000Y-92770000D01*
%TO.C,J6*%
X39550000Y-84000000D02*
X54050000Y-84000000D01*
X54050000Y-84000000D02*
X54050000Y-75750000D01*
X39550000Y-75000000D02*
X39550000Y-84000000D01*
X43050000Y-75000000D02*
X43050000Y-84000000D01*
X53250000Y-75000000D02*
X39550000Y-75000000D01*
X53246787Y-74994575D02*
X54050000Y-75750000D01*
%TO.C,R3*%
X144130000Y-29690000D02*
X144790000Y-29690000D01*
X151750000Y-29690000D02*
X151090000Y-29690000D01*
X144790000Y-28440000D02*
X151090000Y-28440000D01*
X151090000Y-30940000D01*
X144790000Y-30940000D01*
X144790000Y-28440000D01*
%TO.C,J10*%
X149250000Y-27532500D02*
X149250000Y-19732500D01*
X159750000Y-27532500D02*
X149250000Y-27532500D01*
X150732000Y-24745500D02*
X152963000Y-22514500D01*
X155732000Y-24745500D02*
X157963000Y-22514500D01*
X150537000Y-24550500D02*
X152768000Y-22319500D01*
X155537000Y-24550500D02*
X157768000Y-22319500D01*
X159750000Y-24032500D02*
X149250000Y-24032500D01*
X159750000Y-23032500D02*
X149250000Y-23032500D01*
X159750000Y-21732500D02*
X149250000Y-21732500D01*
X159750000Y-21682500D02*
X159750000Y-27532500D01*
X149250000Y-19732500D02*
X157800000Y-19732500D01*
X157800000Y-19732500D02*
X159750000Y-21682500D01*
X153350000Y-23532500D02*
G75*
G02*
X150150000Y-23532500I-1600000J0D01*
G01*
X150150000Y-23532500D02*
G75*
G02*
X153350000Y-23532500I1600000J0D01*
G01*
X158350000Y-23532500D02*
G75*
G02*
X155150000Y-23532500I-1600000J0D01*
G01*
X155150000Y-23532500D02*
G75*
G02*
X158350000Y-23532500I1600000J0D01*
G01*
%TD*%
M02*
