%TF.GenerationSoftware,KiCad,Pcbnew,10.0.1*%
%TF.CreationDate,2026-05-27T09:56:19-03:00*%
%TF.ProjectId,metereolog,6d657465-7265-46f6-9c6f-672e6b696361,UFSC - Alisson Claudino*%
%TF.SameCoordinates,Original*%
%TF.FileFunction,Soldermask,Top*%
%TF.FilePolarity,Negative*%
%FSLAX46Y46*%
G04 Gerber Fmt 4.6, Leading zero omitted, Abs format (unit mm)*
G04 Created by KiCad (PCBNEW 10.0.1) date 2026-05-27 09:56:19*
%MOMM*%
%LPD*%
G01*
G04 APERTURE LIST*
G04 Aperture macros list*
%AMRoundRect*
0 Rectangle with rounded corners*
0 $1 Rounding radius*
0 $2 $3 $4 $5 $6 $7 $8 $9 X,Y pos of 4 corners*
0 Add a 4 corners polygon primitive as box body*
4,1,4,$2,$3,$4,$5,$6,$7,$8,$9,$2,$3,0*
0 Add four circle primitives for the rounded corners*
1,1,$1+$1,$2,$3*
1,1,$1+$1,$4,$5*
1,1,$1+$1,$6,$7*
1,1,$1+$1,$8,$9*
0 Add four rect primitives between the rounded corners*
20,1,$1+$1,$2,$3,$4,$5,0*
20,1,$1+$1,$4,$5,$6,$7,0*
20,1,$1+$1,$6,$7,$8,$9,0*
20,1,$1+$1,$8,$9,$2,$3,0*%
G04 Aperture macros list end*
%ADD10RoundRect,0.250001X1.149999X1.149999X-1.149999X1.149999X-1.149999X-1.149999X1.149999X-1.149999X0*%
%ADD11C,2.800000*%
%ADD12C,1.600000*%
%ADD13RoundRect,0.250001X1.149999X-1.149999X1.149999X1.149999X-1.149999X1.149999X-1.149999X-1.149999X0*%
%ADD14C,1.854000*%
%ADD15RoundRect,0.102000X-0.825000X0.825000X-0.825000X-0.825000X0.825000X-0.825000X0.825000X0.825000X0*%
%ADD16RoundRect,0.250001X-1.149999X1.149999X-1.149999X-1.149999X1.149999X-1.149999X1.149999X1.149999X0*%
%ADD17R,3.000000X3.000000*%
%ADD18C,1.200000*%
%ADD19R,1.700000X1.700000*%
%ADD20C,1.700000*%
%ADD21R,3.500000X3.500000*%
%ADD22RoundRect,0.750000X-0.750000X-1.000000X0.750000X-1.000000X0.750000X1.000000X-0.750000X1.000000X0*%
%ADD23RoundRect,0.875000X-0.875000X-0.875000X0.875000X-0.875000X0.875000X0.875000X-0.875000X0.875000X0*%
%ADD24RoundRect,0.210000X-0.490000X0.490000X-0.490000X-0.490000X0.490000X-0.490000X0.490000X0.490000X0*%
G04 APERTURE END LIST*
D10*
%TO.C,J2*%
X141250000Y-23500000D03*
D11*
X136250000Y-23500000D03*
X131250000Y-23500000D03*
%TD*%
D12*
%TO.C,R1*%
X56750000Y-29690000D03*
X56750000Y-37310000D03*
%TD*%
D13*
%TO.C,J8*%
X156217500Y-91545000D03*
D11*
X156217500Y-86545000D03*
%TD*%
D14*
%TO.C,HTC1*%
X108150000Y-48020000D03*
X105610000Y-48020000D03*
X103070000Y-48020000D03*
X100530000Y-48020000D03*
X97990000Y-48020000D03*
X95450000Y-48020000D03*
X92910000Y-48020000D03*
X90370000Y-48020000D03*
X87830000Y-48020000D03*
X85290000Y-48020000D03*
X82750000Y-48020000D03*
X80210000Y-48020000D03*
X77670000Y-48020000D03*
X75130000Y-48020000D03*
X72590000Y-48020000D03*
X70050000Y-48020000D03*
X67510000Y-48020000D03*
X64970000Y-48020000D03*
X64970000Y-25000000D03*
X67510000Y-25000000D03*
X70050000Y-25000000D03*
X72590000Y-25000000D03*
X75130000Y-25000000D03*
X77670000Y-25000000D03*
X80210000Y-25000000D03*
X82750000Y-25000000D03*
X85290000Y-25000000D03*
X87830000Y-25000000D03*
X90370000Y-25000000D03*
X92910000Y-25000000D03*
X95450000Y-25000000D03*
X97990000Y-25000000D03*
X100530000Y-25000000D03*
X103070000Y-25000000D03*
X105610000Y-25000000D03*
D15*
X108150000Y-25000000D03*
%TD*%
D16*
%TO.C,J3*%
X46250000Y-45500000D03*
D11*
X46250000Y-50500000D03*
%TD*%
D16*
%TO.C,J1*%
X46250000Y-24500000D03*
D11*
X46250000Y-29500000D03*
%TD*%
D17*
%TO.C,lm1*%
X107250000Y-90000000D03*
X107250000Y-72000000D03*
X66250000Y-72000000D03*
X66250000Y-90000000D03*
%TD*%
D18*
%TO.C,vc1*%
X132250000Y-35650000D03*
X132250000Y-38190000D03*
X132250000Y-40730000D03*
X132250000Y-43270000D03*
X132250000Y-45810000D03*
X132250000Y-48350000D03*
X122090000Y-48350000D03*
X122090000Y-45810000D03*
X122090000Y-43270000D03*
X122090000Y-40730000D03*
X122090000Y-38190000D03*
X122090000Y-35650000D03*
%TD*%
D12*
%TO.C,R2*%
X52750000Y-52000000D03*
X60370000Y-52000000D03*
%TD*%
D19*
%TO.C,J9*%
X72600000Y-61500000D03*
D20*
X70060000Y-61500000D03*
X67520000Y-61500000D03*
X64980000Y-61500000D03*
X62440000Y-61500000D03*
X59900000Y-61500000D03*
%TD*%
D19*
%TO.C,J4*%
X136250000Y-78540000D03*
D20*
X136250000Y-76000000D03*
X136250000Y-73460000D03*
%TD*%
D13*
%TO.C,J7*%
X156217500Y-78750000D03*
D11*
X156217500Y-73750000D03*
%TD*%
D19*
%TO.C,J5*%
X136250000Y-91500000D03*
D20*
X136250000Y-88960000D03*
X136250000Y-86420000D03*
%TD*%
D21*
%TO.C,J6*%
X53250000Y-79500000D03*
D22*
X47250000Y-79500000D03*
D23*
X50250000Y-84200000D03*
%TD*%
D12*
%TO.C,R3*%
X151750000Y-29690000D03*
X144130000Y-29690000D03*
%TD*%
D10*
%TO.C,J10*%
X156750000Y-23532500D03*
D11*
X151750000Y-23532500D03*
%TD*%
D18*
%TO.C,vc2*%
X122090000Y-51460000D03*
X132250000Y-51460000D03*
X132250000Y-54000000D03*
X132250000Y-56540000D03*
X132250000Y-59080000D03*
X132250000Y-61620000D03*
X132250000Y-64160000D03*
X122090000Y-64160000D03*
X122090000Y-61620000D03*
X122090000Y-59080000D03*
X122090000Y-56540000D03*
X122090000Y-54000000D03*
%TD*%
D24*
%TO.C,rtcsd1*%
X137250000Y-58500000D03*
X137250000Y-55960000D03*
X137250000Y-53420000D03*
X137250000Y-50880000D03*
X137250000Y-48340000D03*
X137250000Y-45800000D03*
X137250000Y-43260000D03*
X137250000Y-40720000D03*
%TD*%
M02*
