%TF.GenerationSoftware,KiCad,Pcbnew,10.0.1*%
%TF.CreationDate,2026-05-27T09:56:19-03:00*%
%TF.ProjectId,metereolog,6d657465-7265-46f6-9c6f-672e6b696361,UFSC - Alisson Claudino*%
%TF.SameCoordinates,Original*%
%TF.FileFunction,Legend,Top*%
%TF.FilePolarity,Positive*%
%FSLAX46Y46*%
G04 Gerber Fmt 4.6, Leading zero omitted, Abs format (unit mm)*
G04 Created by KiCad (PCBNEW 10.0.1) date 2026-05-27 09:56:19*
%MOMM*%
%LPD*%
G01*
G04 APERTURE LIST*
%ADD10C,0.150000*%
%ADD11C,0.100000*%
%ADD12C,0.120000*%
%ADD13C,0.127000*%
%ADD14C,0.200000*%
G04 APERTURE END LIST*
D10*
X136166666Y-28074819D02*
X136166666Y-28789104D01*
X136166666Y-28789104D02*
X136119047Y-28931961D01*
X136119047Y-28931961D02*
X136023809Y-29027200D01*
X136023809Y-29027200D02*
X135880952Y-29074819D01*
X135880952Y-29074819D02*
X135785714Y-29074819D01*
X136595238Y-28170057D02*
X136642857Y-28122438D01*
X136642857Y-28122438D02*
X136738095Y-28074819D01*
X136738095Y-28074819D02*
X136976190Y-28074819D01*
X136976190Y-28074819D02*
X137071428Y-28122438D01*
X137071428Y-28122438D02*
X137119047Y-28170057D01*
X137119047Y-28170057D02*
X137166666Y-28265295D01*
X137166666Y-28265295D02*
X137166666Y-28360533D01*
X137166666Y-28360533D02*
X137119047Y-28503390D01*
X137119047Y-28503390D02*
X136547619Y-29074819D01*
X136547619Y-29074819D02*
X137166666Y-29074819D01*
X59574819Y-33666666D02*
X59098628Y-33999999D01*
X59574819Y-34238094D02*
X58574819Y-34238094D01*
X58574819Y-34238094D02*
X58574819Y-33857142D01*
X58574819Y-33857142D02*
X58622438Y-33761904D01*
X58622438Y-33761904D02*
X58670057Y-33714285D01*
X58670057Y-33714285D02*
X58765295Y-33666666D01*
X58765295Y-33666666D02*
X58908152Y-33666666D01*
X58908152Y-33666666D02*
X59003390Y-33714285D01*
X59003390Y-33714285D02*
X59051009Y-33761904D01*
X59051009Y-33761904D02*
X59098628Y-33857142D01*
X59098628Y-33857142D02*
X59098628Y-34238094D01*
X59574819Y-32714285D02*
X59574819Y-33285713D01*
X59574819Y-32999999D02*
X58574819Y-32999999D01*
X58574819Y-32999999D02*
X58717676Y-33095237D01*
X58717676Y-33095237D02*
X58812914Y-33190475D01*
X58812914Y-33190475D02*
X58860533Y-33285713D01*
X150552319Y-89628333D02*
X151266604Y-89628333D01*
X151266604Y-89628333D02*
X151409461Y-89675952D01*
X151409461Y-89675952D02*
X151504700Y-89771190D01*
X151504700Y-89771190D02*
X151552319Y-89914047D01*
X151552319Y-89914047D02*
X151552319Y-90009285D01*
X150980890Y-89009285D02*
X150933271Y-89104523D01*
X150933271Y-89104523D02*
X150885652Y-89152142D01*
X150885652Y-89152142D02*
X150790414Y-89199761D01*
X150790414Y-89199761D02*
X150742795Y-89199761D01*
X150742795Y-89199761D02*
X150647557Y-89152142D01*
X150647557Y-89152142D02*
X150599938Y-89104523D01*
X150599938Y-89104523D02*
X150552319Y-89009285D01*
X150552319Y-89009285D02*
X150552319Y-88818809D01*
X150552319Y-88818809D02*
X150599938Y-88723571D01*
X150599938Y-88723571D02*
X150647557Y-88675952D01*
X150647557Y-88675952D02*
X150742795Y-88628333D01*
X150742795Y-88628333D02*
X150790414Y-88628333D01*
X150790414Y-88628333D02*
X150885652Y-88675952D01*
X150885652Y-88675952D02*
X150933271Y-88723571D01*
X150933271Y-88723571D02*
X150980890Y-88818809D01*
X150980890Y-88818809D02*
X150980890Y-89009285D01*
X150980890Y-89009285D02*
X151028509Y-89104523D01*
X151028509Y-89104523D02*
X151076128Y-89152142D01*
X151076128Y-89152142D02*
X151171366Y-89199761D01*
X151171366Y-89199761D02*
X151361842Y-89199761D01*
X151361842Y-89199761D02*
X151457080Y-89152142D01*
X151457080Y-89152142D02*
X151504700Y-89104523D01*
X151504700Y-89104523D02*
X151552319Y-89009285D01*
X151552319Y-89009285D02*
X151552319Y-88818809D01*
X151552319Y-88818809D02*
X151504700Y-88723571D01*
X151504700Y-88723571D02*
X151457080Y-88675952D01*
X151457080Y-88675952D02*
X151361842Y-88628333D01*
X151361842Y-88628333D02*
X151171366Y-88628333D01*
X151171366Y-88628333D02*
X151076128Y-88675952D01*
X151076128Y-88675952D02*
X151028509Y-88723571D01*
X151028509Y-88723571D02*
X150980890Y-88818809D01*
X113189819Y-28327856D02*
X112189819Y-28327856D01*
X112666009Y-28327856D02*
X112666009Y-27756428D01*
X113189819Y-27756428D02*
X112189819Y-27756428D01*
X112189819Y-27423094D02*
X112189819Y-26851666D01*
X113189819Y-27137380D02*
X112189819Y-27137380D01*
X113094580Y-25946904D02*
X113142200Y-25994523D01*
X113142200Y-25994523D02*
X113189819Y-26137380D01*
X113189819Y-26137380D02*
X113189819Y-26232618D01*
X113189819Y-26232618D02*
X113142200Y-26375475D01*
X113142200Y-26375475D02*
X113046961Y-26470713D01*
X113046961Y-26470713D02*
X112951723Y-26518332D01*
X112951723Y-26518332D02*
X112761247Y-26565951D01*
X112761247Y-26565951D02*
X112618390Y-26565951D01*
X112618390Y-26565951D02*
X112427914Y-26518332D01*
X112427914Y-26518332D02*
X112332676Y-26470713D01*
X112332676Y-26470713D02*
X112237438Y-26375475D01*
X112237438Y-26375475D02*
X112189819Y-26232618D01*
X112189819Y-26232618D02*
X112189819Y-26137380D01*
X112189819Y-26137380D02*
X112237438Y-25994523D01*
X112237438Y-25994523D02*
X112285057Y-25946904D01*
X113189819Y-24994523D02*
X113189819Y-25565951D01*
X113189819Y-25280237D02*
X112189819Y-25280237D01*
X112189819Y-25280237D02*
X112332676Y-25375475D01*
X112332676Y-25375475D02*
X112427914Y-25470713D01*
X112427914Y-25470713D02*
X112475533Y-25565951D01*
X50824819Y-48083333D02*
X51539104Y-48083333D01*
X51539104Y-48083333D02*
X51681961Y-48130952D01*
X51681961Y-48130952D02*
X51777200Y-48226190D01*
X51777200Y-48226190D02*
X51824819Y-48369047D01*
X51824819Y-48369047D02*
X51824819Y-48464285D01*
X50824819Y-47702380D02*
X50824819Y-47083333D01*
X50824819Y-47083333D02*
X51205771Y-47416666D01*
X51205771Y-47416666D02*
X51205771Y-47273809D01*
X51205771Y-47273809D02*
X51253390Y-47178571D01*
X51253390Y-47178571D02*
X51301009Y-47130952D01*
X51301009Y-47130952D02*
X51396247Y-47083333D01*
X51396247Y-47083333D02*
X51634342Y-47083333D01*
X51634342Y-47083333D02*
X51729580Y-47130952D01*
X51729580Y-47130952D02*
X51777200Y-47178571D01*
X51777200Y-47178571D02*
X51824819Y-47273809D01*
X51824819Y-47273809D02*
X51824819Y-47559523D01*
X51824819Y-47559523D02*
X51777200Y-47654761D01*
X51777200Y-47654761D02*
X51729580Y-47702380D01*
X50824819Y-27083333D02*
X51539104Y-27083333D01*
X51539104Y-27083333D02*
X51681961Y-27130952D01*
X51681961Y-27130952D02*
X51777200Y-27226190D01*
X51777200Y-27226190D02*
X51824819Y-27369047D01*
X51824819Y-27369047D02*
X51824819Y-27464285D01*
X51824819Y-26083333D02*
X51824819Y-26654761D01*
X51824819Y-26369047D02*
X50824819Y-26369047D01*
X50824819Y-26369047D02*
X50967676Y-26464285D01*
X50967676Y-26464285D02*
X51062914Y-26559523D01*
X51062914Y-26559523D02*
X51110533Y-26654761D01*
D11*
X85726190Y-80957419D02*
X85630952Y-80909800D01*
X85630952Y-80909800D02*
X85583333Y-80814561D01*
X85583333Y-80814561D02*
X85583333Y-79957419D01*
X86107143Y-80957419D02*
X86107143Y-80290752D01*
X86107143Y-80385990D02*
X86154762Y-80338371D01*
X86154762Y-80338371D02*
X86250000Y-80290752D01*
X86250000Y-80290752D02*
X86392857Y-80290752D01*
X86392857Y-80290752D02*
X86488095Y-80338371D01*
X86488095Y-80338371D02*
X86535714Y-80433609D01*
X86535714Y-80433609D02*
X86535714Y-80957419D01*
X86535714Y-80433609D02*
X86583333Y-80338371D01*
X86583333Y-80338371D02*
X86678571Y-80290752D01*
X86678571Y-80290752D02*
X86821428Y-80290752D01*
X86821428Y-80290752D02*
X86916667Y-80338371D01*
X86916667Y-80338371D02*
X86964286Y-80433609D01*
X86964286Y-80433609D02*
X86964286Y-80957419D01*
X87964285Y-80957419D02*
X87392857Y-80957419D01*
X87678571Y-80957419D02*
X87678571Y-79957419D01*
X87678571Y-79957419D02*
X87583333Y-80100276D01*
X87583333Y-80100276D02*
X87488095Y-80195514D01*
X87488095Y-80195514D02*
X87392857Y-80243133D01*
X125040752Y-43682856D02*
X125707419Y-43444761D01*
X125707419Y-43444761D02*
X125040752Y-43206666D01*
X125659800Y-42397142D02*
X125707419Y-42492380D01*
X125707419Y-42492380D02*
X125707419Y-42682856D01*
X125707419Y-42682856D02*
X125659800Y-42778094D01*
X125659800Y-42778094D02*
X125612180Y-42825713D01*
X125612180Y-42825713D02*
X125516942Y-42873332D01*
X125516942Y-42873332D02*
X125231228Y-42873332D01*
X125231228Y-42873332D02*
X125135990Y-42825713D01*
X125135990Y-42825713D02*
X125088371Y-42778094D01*
X125088371Y-42778094D02*
X125040752Y-42682856D01*
X125040752Y-42682856D02*
X125040752Y-42492380D01*
X125040752Y-42492380D02*
X125088371Y-42397142D01*
X125707419Y-41444761D02*
X125707419Y-42016189D01*
X125707419Y-41730475D02*
X124707419Y-41730475D01*
X124707419Y-41730475D02*
X124850276Y-41825713D01*
X124850276Y-41825713D02*
X124945514Y-41920951D01*
X124945514Y-41920951D02*
X124993133Y-42016189D01*
D10*
X56393333Y-50084819D02*
X56060000Y-49608628D01*
X55821905Y-50084819D02*
X55821905Y-49084819D01*
X55821905Y-49084819D02*
X56202857Y-49084819D01*
X56202857Y-49084819D02*
X56298095Y-49132438D01*
X56298095Y-49132438D02*
X56345714Y-49180057D01*
X56345714Y-49180057D02*
X56393333Y-49275295D01*
X56393333Y-49275295D02*
X56393333Y-49418152D01*
X56393333Y-49418152D02*
X56345714Y-49513390D01*
X56345714Y-49513390D02*
X56298095Y-49561009D01*
X56298095Y-49561009D02*
X56202857Y-49608628D01*
X56202857Y-49608628D02*
X55821905Y-49608628D01*
X56774286Y-49180057D02*
X56821905Y-49132438D01*
X56821905Y-49132438D02*
X56917143Y-49084819D01*
X56917143Y-49084819D02*
X57155238Y-49084819D01*
X57155238Y-49084819D02*
X57250476Y-49132438D01*
X57250476Y-49132438D02*
X57298095Y-49180057D01*
X57298095Y-49180057D02*
X57345714Y-49275295D01*
X57345714Y-49275295D02*
X57345714Y-49370533D01*
X57345714Y-49370533D02*
X57298095Y-49513390D01*
X57298095Y-49513390D02*
X56726667Y-50084819D01*
X56726667Y-50084819D02*
X57345714Y-50084819D01*
X74824819Y-61833333D02*
X75539104Y-61833333D01*
X75539104Y-61833333D02*
X75681961Y-61880952D01*
X75681961Y-61880952D02*
X75777200Y-61976190D01*
X75777200Y-61976190D02*
X75824819Y-62119047D01*
X75824819Y-62119047D02*
X75824819Y-62214285D01*
X75824819Y-61309523D02*
X75824819Y-61119047D01*
X75824819Y-61119047D02*
X75777200Y-61023809D01*
X75777200Y-61023809D02*
X75729580Y-60976190D01*
X75729580Y-60976190D02*
X75586723Y-60880952D01*
X75586723Y-60880952D02*
X75396247Y-60833333D01*
X75396247Y-60833333D02*
X75015295Y-60833333D01*
X75015295Y-60833333D02*
X74920057Y-60880952D01*
X74920057Y-60880952D02*
X74872438Y-60928571D01*
X74872438Y-60928571D02*
X74824819Y-61023809D01*
X74824819Y-61023809D02*
X74824819Y-61214285D01*
X74824819Y-61214285D02*
X74872438Y-61309523D01*
X74872438Y-61309523D02*
X74920057Y-61357142D01*
X74920057Y-61357142D02*
X75015295Y-61404761D01*
X75015295Y-61404761D02*
X75253390Y-61404761D01*
X75253390Y-61404761D02*
X75348628Y-61357142D01*
X75348628Y-61357142D02*
X75396247Y-61309523D01*
X75396247Y-61309523D02*
X75443866Y-61214285D01*
X75443866Y-61214285D02*
X75443866Y-61023809D01*
X75443866Y-61023809D02*
X75396247Y-60928571D01*
X75396247Y-60928571D02*
X75348628Y-60880952D01*
X75348628Y-60880952D02*
X75253390Y-60833333D01*
X135916666Y-80764819D02*
X135916666Y-81479104D01*
X135916666Y-81479104D02*
X135869047Y-81621961D01*
X135869047Y-81621961D02*
X135773809Y-81717200D01*
X135773809Y-81717200D02*
X135630952Y-81764819D01*
X135630952Y-81764819D02*
X135535714Y-81764819D01*
X136821428Y-81098152D02*
X136821428Y-81764819D01*
X136583333Y-80717200D02*
X136345238Y-81431485D01*
X136345238Y-81431485D02*
X136964285Y-81431485D01*
X150552319Y-76833333D02*
X151266604Y-76833333D01*
X151266604Y-76833333D02*
X151409461Y-76880952D01*
X151409461Y-76880952D02*
X151504700Y-76976190D01*
X151504700Y-76976190D02*
X151552319Y-77119047D01*
X151552319Y-77119047D02*
X151552319Y-77214285D01*
X150552319Y-76452380D02*
X150552319Y-75785714D01*
X150552319Y-75785714D02*
X151552319Y-76214285D01*
X135916666Y-93724819D02*
X135916666Y-94439104D01*
X135916666Y-94439104D02*
X135869047Y-94581961D01*
X135869047Y-94581961D02*
X135773809Y-94677200D01*
X135773809Y-94677200D02*
X135630952Y-94724819D01*
X135630952Y-94724819D02*
X135535714Y-94724819D01*
X136869047Y-93724819D02*
X136392857Y-93724819D01*
X136392857Y-93724819D02*
X136345238Y-94201009D01*
X136345238Y-94201009D02*
X136392857Y-94153390D01*
X136392857Y-94153390D02*
X136488095Y-94105771D01*
X136488095Y-94105771D02*
X136726190Y-94105771D01*
X136726190Y-94105771D02*
X136821428Y-94153390D01*
X136821428Y-94153390D02*
X136869047Y-94201009D01*
X136869047Y-94201009D02*
X136916666Y-94296247D01*
X136916666Y-94296247D02*
X136916666Y-94534342D01*
X136916666Y-94534342D02*
X136869047Y-94629580D01*
X136869047Y-94629580D02*
X136821428Y-94677200D01*
X136821428Y-94677200D02*
X136726190Y-94724819D01*
X136726190Y-94724819D02*
X136488095Y-94724819D01*
X136488095Y-94724819D02*
X136392857Y-94677200D01*
X136392857Y-94677200D02*
X136345238Y-94629580D01*
X44466666Y-84704819D02*
X44466666Y-85419104D01*
X44466666Y-85419104D02*
X44419047Y-85561961D01*
X44419047Y-85561961D02*
X44323809Y-85657200D01*
X44323809Y-85657200D02*
X44180952Y-85704819D01*
X44180952Y-85704819D02*
X44085714Y-85704819D01*
X45371428Y-84704819D02*
X45180952Y-84704819D01*
X45180952Y-84704819D02*
X45085714Y-84752438D01*
X45085714Y-84752438D02*
X45038095Y-84800057D01*
X45038095Y-84800057D02*
X44942857Y-84942914D01*
X44942857Y-84942914D02*
X44895238Y-85133390D01*
X44895238Y-85133390D02*
X44895238Y-85514342D01*
X44895238Y-85514342D02*
X44942857Y-85609580D01*
X44942857Y-85609580D02*
X44990476Y-85657200D01*
X44990476Y-85657200D02*
X45085714Y-85704819D01*
X45085714Y-85704819D02*
X45276190Y-85704819D01*
X45276190Y-85704819D02*
X45371428Y-85657200D01*
X45371428Y-85657200D02*
X45419047Y-85609580D01*
X45419047Y-85609580D02*
X45466666Y-85514342D01*
X45466666Y-85514342D02*
X45466666Y-85276247D01*
X45466666Y-85276247D02*
X45419047Y-85181009D01*
X45419047Y-85181009D02*
X45371428Y-85133390D01*
X45371428Y-85133390D02*
X45276190Y-85085771D01*
X45276190Y-85085771D02*
X45085714Y-85085771D01*
X45085714Y-85085771D02*
X44990476Y-85133390D01*
X44990476Y-85133390D02*
X44942857Y-85181009D01*
X44942857Y-85181009D02*
X44895238Y-85276247D01*
X147773333Y-32514819D02*
X147440000Y-32038628D01*
X147201905Y-32514819D02*
X147201905Y-31514819D01*
X147201905Y-31514819D02*
X147582857Y-31514819D01*
X147582857Y-31514819D02*
X147678095Y-31562438D01*
X147678095Y-31562438D02*
X147725714Y-31610057D01*
X147725714Y-31610057D02*
X147773333Y-31705295D01*
X147773333Y-31705295D02*
X147773333Y-31848152D01*
X147773333Y-31848152D02*
X147725714Y-31943390D01*
X147725714Y-31943390D02*
X147678095Y-31991009D01*
X147678095Y-31991009D02*
X147582857Y-32038628D01*
X147582857Y-32038628D02*
X147201905Y-32038628D01*
X148106667Y-31514819D02*
X148725714Y-31514819D01*
X148725714Y-31514819D02*
X148392381Y-31895771D01*
X148392381Y-31895771D02*
X148535238Y-31895771D01*
X148535238Y-31895771D02*
X148630476Y-31943390D01*
X148630476Y-31943390D02*
X148678095Y-31991009D01*
X148678095Y-31991009D02*
X148725714Y-32086247D01*
X148725714Y-32086247D02*
X148725714Y-32324342D01*
X148725714Y-32324342D02*
X148678095Y-32419580D01*
X148678095Y-32419580D02*
X148630476Y-32467200D01*
X148630476Y-32467200D02*
X148535238Y-32514819D01*
X148535238Y-32514819D02*
X148249524Y-32514819D01*
X148249524Y-32514819D02*
X148154286Y-32467200D01*
X148154286Y-32467200D02*
X148106667Y-32419580D01*
X153690476Y-28107319D02*
X153690476Y-28821604D01*
X153690476Y-28821604D02*
X153642857Y-28964461D01*
X153642857Y-28964461D02*
X153547619Y-29059700D01*
X153547619Y-29059700D02*
X153404762Y-29107319D01*
X153404762Y-29107319D02*
X153309524Y-29107319D01*
X154690476Y-29107319D02*
X154119048Y-29107319D01*
X154404762Y-29107319D02*
X154404762Y-28107319D01*
X154404762Y-28107319D02*
X154309524Y-28250176D01*
X154309524Y-28250176D02*
X154214286Y-28345414D01*
X154214286Y-28345414D02*
X154119048Y-28393033D01*
X155309524Y-28107319D02*
X155404762Y-28107319D01*
X155404762Y-28107319D02*
X155500000Y-28154938D01*
X155500000Y-28154938D02*
X155547619Y-28202557D01*
X155547619Y-28202557D02*
X155595238Y-28297795D01*
X155595238Y-28297795D02*
X155642857Y-28488271D01*
X155642857Y-28488271D02*
X155642857Y-28726366D01*
X155642857Y-28726366D02*
X155595238Y-28916842D01*
X155595238Y-28916842D02*
X155547619Y-29012080D01*
X155547619Y-29012080D02*
X155500000Y-29059700D01*
X155500000Y-29059700D02*
X155404762Y-29107319D01*
X155404762Y-29107319D02*
X155309524Y-29107319D01*
X155309524Y-29107319D02*
X155214286Y-29059700D01*
X155214286Y-29059700D02*
X155166667Y-29012080D01*
X155166667Y-29012080D02*
X155119048Y-28916842D01*
X155119048Y-28916842D02*
X155071429Y-28726366D01*
X155071429Y-28726366D02*
X155071429Y-28488271D01*
X155071429Y-28488271D02*
X155119048Y-28297795D01*
X155119048Y-28297795D02*
X155166667Y-28202557D01*
X155166667Y-28202557D02*
X155214286Y-28154938D01*
X155214286Y-28154938D02*
X155309524Y-28107319D01*
D11*
X125040752Y-59492856D02*
X125707419Y-59254761D01*
X125707419Y-59254761D02*
X125040752Y-59016666D01*
X125659800Y-58207142D02*
X125707419Y-58302380D01*
X125707419Y-58302380D02*
X125707419Y-58492856D01*
X125707419Y-58492856D02*
X125659800Y-58588094D01*
X125659800Y-58588094D02*
X125612180Y-58635713D01*
X125612180Y-58635713D02*
X125516942Y-58683332D01*
X125516942Y-58683332D02*
X125231228Y-58683332D01*
X125231228Y-58683332D02*
X125135990Y-58635713D01*
X125135990Y-58635713D02*
X125088371Y-58588094D01*
X125088371Y-58588094D02*
X125040752Y-58492856D01*
X125040752Y-58492856D02*
X125040752Y-58302380D01*
X125040752Y-58302380D02*
X125088371Y-58207142D01*
X124802657Y-57826189D02*
X124755038Y-57778570D01*
X124755038Y-57778570D02*
X124707419Y-57683332D01*
X124707419Y-57683332D02*
X124707419Y-57445237D01*
X124707419Y-57445237D02*
X124755038Y-57349999D01*
X124755038Y-57349999D02*
X124802657Y-57302380D01*
X124802657Y-57302380D02*
X124897895Y-57254761D01*
X124897895Y-57254761D02*
X124993133Y-57254761D01*
X124993133Y-57254761D02*
X125135990Y-57302380D01*
X125135990Y-57302380D02*
X125707419Y-57873808D01*
X125707419Y-57873808D02*
X125707419Y-57254761D01*
X154752580Y-47490952D02*
X155419247Y-47490952D01*
X155228771Y-47490952D02*
X155324009Y-47538571D01*
X155324009Y-47538571D02*
X155371628Y-47586190D01*
X155371628Y-47586190D02*
X155419247Y-47681428D01*
X155419247Y-47681428D02*
X155419247Y-47776666D01*
X155419247Y-47967143D02*
X155419247Y-48348095D01*
X155752580Y-48110000D02*
X154895438Y-48110000D01*
X154895438Y-48110000D02*
X154800200Y-48157619D01*
X154800200Y-48157619D02*
X154752580Y-48252857D01*
X154752580Y-48252857D02*
X154752580Y-48348095D01*
X154800200Y-49110000D02*
X154752580Y-49014762D01*
X154752580Y-49014762D02*
X154752580Y-48824286D01*
X154752580Y-48824286D02*
X154800200Y-48729048D01*
X154800200Y-48729048D02*
X154847819Y-48681429D01*
X154847819Y-48681429D02*
X154943057Y-48633810D01*
X154943057Y-48633810D02*
X155228771Y-48633810D01*
X155228771Y-48633810D02*
X155324009Y-48681429D01*
X155324009Y-48681429D02*
X155371628Y-48729048D01*
X155371628Y-48729048D02*
X155419247Y-48824286D01*
X155419247Y-48824286D02*
X155419247Y-49014762D01*
X155419247Y-49014762D02*
X155371628Y-49110000D01*
X154800200Y-49490953D02*
X154752580Y-49586191D01*
X154752580Y-49586191D02*
X154752580Y-49776667D01*
X154752580Y-49776667D02*
X154800200Y-49871905D01*
X154800200Y-49871905D02*
X154895438Y-49919524D01*
X154895438Y-49919524D02*
X154943057Y-49919524D01*
X154943057Y-49919524D02*
X155038295Y-49871905D01*
X155038295Y-49871905D02*
X155085914Y-49776667D01*
X155085914Y-49776667D02*
X155085914Y-49633810D01*
X155085914Y-49633810D02*
X155133533Y-49538572D01*
X155133533Y-49538572D02*
X155228771Y-49490953D01*
X155228771Y-49490953D02*
X155276390Y-49490953D01*
X155276390Y-49490953D02*
X155371628Y-49538572D01*
X155371628Y-49538572D02*
X155419247Y-49633810D01*
X155419247Y-49633810D02*
X155419247Y-49776667D01*
X155419247Y-49776667D02*
X155371628Y-49871905D01*
X154752580Y-50776667D02*
X155752580Y-50776667D01*
X154800200Y-50776667D02*
X154752580Y-50681429D01*
X154752580Y-50681429D02*
X154752580Y-50490953D01*
X154752580Y-50490953D02*
X154800200Y-50395715D01*
X154800200Y-50395715D02*
X154847819Y-50348096D01*
X154847819Y-50348096D02*
X154943057Y-50300477D01*
X154943057Y-50300477D02*
X155228771Y-50300477D01*
X155228771Y-50300477D02*
X155324009Y-50348096D01*
X155324009Y-50348096D02*
X155371628Y-50395715D01*
X155371628Y-50395715D02*
X155419247Y-50490953D01*
X155419247Y-50490953D02*
X155419247Y-50681429D01*
X155419247Y-50681429D02*
X155371628Y-50776667D01*
X154752580Y-51776667D02*
X154752580Y-51205239D01*
X154752580Y-51490953D02*
X155752580Y-51490953D01*
X155752580Y-51490953D02*
X155609723Y-51395715D01*
X155609723Y-51395715D02*
X155514485Y-51300477D01*
X155514485Y-51300477D02*
X155466866Y-51205239D01*
%TO.C,J2*%
D12*
X128630000Y-27620000D02*
X128630000Y-19580000D01*
X144370000Y-27620000D02*
X128630000Y-27620000D01*
X129438000Y-24000000D02*
X128630000Y-24000000D01*
X134438000Y-24000000D02*
X133062000Y-24000000D01*
X139370000Y-24000000D02*
X138062000Y-24000000D01*
X144370000Y-24000000D02*
X143130000Y-24000000D01*
X129438000Y-23000000D02*
X128630000Y-23000000D01*
X134438000Y-23000000D02*
X133062000Y-23000000D01*
X139370000Y-23000000D02*
X138062000Y-23000000D01*
X144370000Y-23000000D02*
X143130000Y-23000000D01*
X130707000Y-21700000D02*
X128630000Y-21700000D01*
X135707000Y-21700000D02*
X131793000Y-21700000D01*
X139370000Y-21700000D02*
X136793000Y-21700000D01*
X144370000Y-21700000D02*
X143130000Y-21700000D01*
X128630000Y-19580000D02*
X140950000Y-19580000D01*
X141550000Y-19580000D02*
X144370000Y-19580000D01*
X144370000Y-19580000D02*
X144370000Y-27620000D01*
X141250000Y-19580000D02*
X140810000Y-18970000D01*
X141690000Y-18970000D01*
X141250000Y-19580000D01*
G36*
X141250000Y-19580000D02*
G01*
X140810000Y-18970000D01*
X141690000Y-18970000D01*
X141250000Y-19580000D01*
G37*
%TO.C,R1*%
X55380000Y-36770000D02*
X55710000Y-36770000D01*
X58120000Y-36770000D02*
X57790000Y-36770000D01*
X55380000Y-30230000D02*
X55380000Y-36770000D01*
X55710000Y-30230000D02*
X55380000Y-30230000D01*
X57790000Y-30230000D02*
X58120000Y-30230000D01*
X58120000Y-30230000D02*
X58120000Y-36770000D01*
%TO.C,J8*%
X152097500Y-94665000D02*
X152097500Y-83925000D01*
X155717500Y-94665000D02*
X155717500Y-93425000D01*
X156717500Y-94665000D02*
X156717500Y-93425000D01*
X158017500Y-94665000D02*
X158017500Y-93425000D01*
X160137500Y-94665000D02*
X152097500Y-94665000D01*
X160137500Y-91845000D02*
X160137500Y-94665000D01*
X155717500Y-89665000D02*
X155717500Y-88357000D01*
X156717500Y-89665000D02*
X156717500Y-88357000D01*
X158017500Y-89665000D02*
X158017500Y-87088000D01*
X158017500Y-86002000D02*
X158017500Y-83925000D01*
X155717500Y-84733000D02*
X155717500Y-83925000D01*
X156717500Y-84733000D02*
X156717500Y-83925000D01*
X152097500Y-83925000D02*
X160137500Y-83925000D01*
X160137500Y-83925000D02*
X160137500Y-91245000D01*
X160747500Y-91985000D02*
X160137500Y-91545000D01*
X160747500Y-91105000D01*
X160747500Y-91985000D01*
G36*
X160747500Y-91985000D02*
G01*
X160137500Y-91545000D01*
X160747500Y-91105000D01*
X160747500Y-91985000D01*
G37*
%TO.C,HTC1*%
D13*
X62950000Y-49260000D02*
X62950000Y-44260000D01*
X110850000Y-49260000D02*
X62950000Y-49260000D01*
X60650000Y-41510000D02*
X62950000Y-44260000D01*
X60650000Y-31510000D02*
X60650000Y-41510000D01*
X62950000Y-28760000D02*
X60650000Y-31510000D01*
X62950000Y-28760000D02*
X62950000Y-23760000D01*
X62950000Y-23760000D02*
X110850000Y-23760000D01*
X110850000Y-23760000D02*
X110850000Y-49260000D01*
D14*
X108250000Y-22710000D02*
G75*
G02*
X108050000Y-22710000I-100000J0D01*
G01*
X108050000Y-22710000D02*
G75*
G02*
X108250000Y-22710000I100000J0D01*
G01*
%TO.C,J3*%
D12*
X42330000Y-53120000D02*
X42330000Y-45800000D01*
X50370000Y-53120000D02*
X42330000Y-53120000D01*
X45750000Y-52312000D02*
X45750000Y-53120000D01*
X46750000Y-52312000D02*
X46750000Y-53120000D01*
X44450000Y-51043000D02*
X44450000Y-53120000D01*
X44450000Y-47380000D02*
X44450000Y-49957000D01*
X45750000Y-47380000D02*
X45750000Y-48688000D01*
X46750000Y-47380000D02*
X46750000Y-48688000D01*
X42330000Y-45200000D02*
X42330000Y-42380000D01*
X42330000Y-42380000D02*
X50370000Y-42380000D01*
X44450000Y-42380000D02*
X44450000Y-43620000D01*
X45750000Y-42380000D02*
X45750000Y-43620000D01*
X46750000Y-42380000D02*
X46750000Y-43620000D01*
X50370000Y-42380000D02*
X50370000Y-53120000D01*
X42330000Y-45500000D02*
X41720000Y-45940000D01*
X41720000Y-45060000D01*
X42330000Y-45500000D01*
G36*
X42330000Y-45500000D02*
G01*
X41720000Y-45940000D01*
X41720000Y-45060000D01*
X42330000Y-45500000D01*
G37*
%TO.C,J1*%
X42330000Y-32120000D02*
X42330000Y-24800000D01*
X50370000Y-32120000D02*
X42330000Y-32120000D01*
X45750000Y-31312000D02*
X45750000Y-32120000D01*
X46750000Y-31312000D02*
X46750000Y-32120000D01*
X44450000Y-30043000D02*
X44450000Y-32120000D01*
X44450000Y-26380000D02*
X44450000Y-28957000D01*
X45750000Y-26380000D02*
X45750000Y-27688000D01*
X46750000Y-26380000D02*
X46750000Y-27688000D01*
X42330000Y-24200000D02*
X42330000Y-21380000D01*
X42330000Y-21380000D02*
X50370000Y-21380000D01*
X44450000Y-21380000D02*
X44450000Y-22620000D01*
X45750000Y-21380000D02*
X45750000Y-22620000D01*
X46750000Y-21380000D02*
X46750000Y-22620000D01*
X50370000Y-21380000D02*
X50370000Y-32120000D01*
X42330000Y-24500000D02*
X41720000Y-24940000D01*
X41720000Y-24060000D01*
X42330000Y-24500000D01*
G36*
X42330000Y-24500000D02*
G01*
X41720000Y-24940000D01*
X41720000Y-24060000D01*
X42330000Y-24500000D01*
G37*
%TO.C,lm1*%
D11*
X64750000Y-91500000D02*
X108750000Y-91500000D01*
X64750000Y-70500000D02*
X64750000Y-91500000D01*
X64750000Y-70500000D02*
X108750000Y-70500000D01*
X108750000Y-70500000D02*
X108750000Y-91500000D01*
%TO.C,vc1*%
X120750000Y-49600000D02*
X133450000Y-49600000D01*
X120750000Y-49600000D02*
X120750000Y-34400000D01*
X133450000Y-49600000D02*
X133450000Y-34400000D01*
X120750000Y-34400000D02*
X133450000Y-34400000D01*
%TO.C,R2*%
D12*
X53290000Y-53370000D02*
X59830000Y-53370000D01*
X59830000Y-53370000D02*
X59830000Y-53040000D01*
X53290000Y-53040000D02*
X53290000Y-53370000D01*
X53290000Y-50960000D02*
X53290000Y-50630000D01*
X53290000Y-50630000D02*
X59830000Y-50630000D01*
X59830000Y-50630000D02*
X59830000Y-50960000D01*
%TO.C,J9*%
X71330000Y-62830000D02*
X58570000Y-62830000D01*
X73930000Y-62830000D02*
X72600000Y-62830000D01*
X73930000Y-61500000D02*
X73930000Y-62830000D01*
X58570000Y-60170000D02*
X58570000Y-62830000D01*
X71330000Y-60170000D02*
X71330000Y-62830000D01*
X71330000Y-60170000D02*
X58570000Y-60170000D01*
%TO.C,J4*%
X134920000Y-79870000D02*
X134920000Y-78540000D01*
X136250000Y-79870000D02*
X134920000Y-79870000D01*
X134920000Y-77270000D02*
X134920000Y-72130000D01*
X137580000Y-77270000D02*
X134920000Y-77270000D01*
X137580000Y-77270000D02*
X137580000Y-72130000D01*
X137580000Y-72130000D02*
X134920000Y-72130000D01*
%TO.C,J7*%
X152097500Y-81870000D02*
X152097500Y-71130000D01*
X155717500Y-81870000D02*
X155717500Y-80630000D01*
X156717500Y-81870000D02*
X156717500Y-80630000D01*
X158017500Y-81870000D02*
X158017500Y-80630000D01*
X160137500Y-81870000D02*
X152097500Y-81870000D01*
X160137500Y-79050000D02*
X160137500Y-81870000D01*
X155717500Y-76870000D02*
X155717500Y-75562000D01*
X156717500Y-76870000D02*
X156717500Y-75562000D01*
X158017500Y-76870000D02*
X158017500Y-74293000D01*
X158017500Y-73207000D02*
X158017500Y-71130000D01*
X155717500Y-71938000D02*
X155717500Y-71130000D01*
X156717500Y-71938000D02*
X156717500Y-71130000D01*
X152097500Y-71130000D02*
X160137500Y-71130000D01*
X160137500Y-71130000D02*
X160137500Y-78450000D01*
X160747500Y-79190000D02*
X160137500Y-78750000D01*
X160747500Y-78310000D01*
X160747500Y-79190000D01*
G36*
X160747500Y-79190000D02*
G01*
X160137500Y-78750000D01*
X160747500Y-78310000D01*
X160747500Y-79190000D01*
G37*
%TO.C,J5*%
X134920000Y-92830000D02*
X134920000Y-91500000D01*
X136250000Y-92830000D02*
X134920000Y-92830000D01*
X134920000Y-90230000D02*
X134920000Y-85090000D01*
X137580000Y-90230000D02*
X134920000Y-90230000D01*
X137580000Y-90230000D02*
X137580000Y-85090000D01*
X137580000Y-85090000D02*
X134920000Y-85090000D01*
%TO.C,J6*%
X39450000Y-84100000D02*
X39450000Y-74900000D01*
X48250000Y-84100000D02*
X39450000Y-84100000D01*
X54150000Y-84100000D02*
X52250000Y-84100000D01*
X54150000Y-81400000D02*
X54150000Y-84100000D01*
X54350000Y-75750000D02*
X54350000Y-74700000D01*
X39450000Y-74900000D02*
X54150000Y-74900000D01*
X54150000Y-74900000D02*
X54150000Y-77500000D01*
X53300000Y-74700000D02*
X54350000Y-74700000D01*
%TO.C,R3*%
X144670000Y-31060000D02*
X144670000Y-30730000D01*
X151210000Y-31060000D02*
X144670000Y-31060000D01*
X151210000Y-30730000D02*
X151210000Y-31060000D01*
X151210000Y-28650000D02*
X151210000Y-28320000D01*
X144670000Y-28320000D02*
X144670000Y-28650000D01*
X151210000Y-28320000D02*
X144670000Y-28320000D01*
%TO.C,J10*%
X149130000Y-27652500D02*
X149130000Y-19612500D01*
X159870000Y-27652500D02*
X149130000Y-27652500D01*
X149938000Y-24032500D02*
X149130000Y-24032500D01*
X154870000Y-24032500D02*
X153562000Y-24032500D01*
X159870000Y-24032500D02*
X158630000Y-24032500D01*
X149938000Y-23032500D02*
X149130000Y-23032500D01*
X154870000Y-23032500D02*
X153562000Y-23032500D01*
X159870000Y-23032500D02*
X158630000Y-23032500D01*
X151207000Y-21732500D02*
X149130000Y-21732500D01*
X154870000Y-21732500D02*
X152293000Y-21732500D01*
X159870000Y-21732500D02*
X158630000Y-21732500D01*
X149130000Y-19612500D02*
X156450000Y-19612500D01*
X157050000Y-19612500D02*
X159870000Y-19612500D01*
X159870000Y-19612500D02*
X159870000Y-27652500D01*
X156750000Y-19612500D02*
X156310000Y-19002500D01*
X157190000Y-19002500D01*
X156750000Y-19612500D01*
G36*
X156750000Y-19612500D02*
G01*
X156310000Y-19002500D01*
X157190000Y-19002500D01*
X156750000Y-19612500D01*
G37*
%TO.C,vc2*%
D11*
X120750000Y-65410000D02*
X133450000Y-65410000D01*
X120750000Y-65410000D02*
X120750000Y-50210000D01*
X133450000Y-65410000D02*
X133450000Y-50210000D01*
X120750000Y-50210000D02*
X133450000Y-50210000D01*
%TO.C,rtcsd1*%
X134710000Y-29610000D02*
X174710000Y-29610000D01*
X174710000Y-69610000D01*
X134710000Y-69610000D01*
X134710000Y-29610000D01*
%TD*%
M02*
